<?xml version="1.0" encoding="UTF-8" standalone="no"?>
<!-- Created with Inkscape (http://www.inkscape.org/) -->

<svg
   width="128"
   height="128"
   viewBox="0 0 128 128"
   version="1.1"
   id="svg1"
   sodipodi:docname="bottom-heat.svg"
   inkscape:version="1.4.3 (0d15f75042, 2025-12-25)"
   xmlns:inkscape="http://www.inkscape.org/namespaces/inkscape"
   xmlns:sodipodi="http://sodipodi.sourceforge.net/DTD/sodipodi-0.dtd"
   xmlns="http://www.w3.org/2000/svg"
   xmlns:svg="http://www.w3.org/2000/svg">
  <sodipodi:namedview
     id="namedview1"
     pagecolor="#ffffff"
     bordercolor="#000000"
     borderopacity="0.25"
     inkscape:showpageshadow="2"
     inkscape:pageopacity="0.0"
     inkscape:pagecheckerboard="0"
     inkscape:deskcolor="#d1d1d1"
     inkscape:document-units="mm"
     inkscape:zoom="0.93895903"
     inkscape:cx="-60.173019"
     inkscape:cy="72.420625"
     inkscape:window-width="1908"
     inkscape:window-height="1015"
     inkscape:window-x="20"
     inkscape:window-y="20"
     inkscape:window-maximized="0"
     inkscape:current-layer="layer1" />
  <defs
     id="defs1">
    <clipPath
       clipPathUnits="userSpaceOnUse"
       id="clipPath261">
      <path
         d="m 48.187493,1127.63 h 23.5859 v 23.582 h -23.5859 z"
         clip-rule="evenodd"
         id="path261" />
    </clipPath>
  </defs>
  <g
     inkscape:label="Layer 1"
     inkscape:groupmode="layer"
     id="layer1"
     transform="translate(-40.979572,-36.130037)">
    <g
       id="g478"
       transform="matrix(8.1404592,0,0,8.1424936,-6844.4306,-2854.8327)"
       style="fill:#ffffff">
      <path
         id="path260"
         d="m 59.9727,1151.2 c -3.6993,0 -7.3946,0 -11.0938,0.01 -0.4609,0 -0.6914,-0.31 -0.6914,-0.69 0.0078,-7.39 0.0078,-14.79 0,-22.18 0,-0.41 0.2188,-0.71 0.7266,-0.71 7.2031,0 14.4023,0 21.6015,0 0.2266,0 0.4532,-0.01 0.6797,0 0.3555,0.03 0.5664,0.26 0.5781,0.62 0,0.03 0,0.06 0,0.09 0,7.38 0,14.77 -0.0039,22.15 0,0.13 -0.0234,0.28 -0.0742,0.4 -0.0859,0.2 -0.2578,0.3 -0.4805,0.31 -0.0546,0 -0.1093,0 -0.1601,0 -3.6914,0 -7.3867,0 -11.082,0 z m -10.5899,-22.39 c 0,7.07 0,14.14 0,21.21 7.0703,0 14.1328,0 21.1992,0 0,-7.07 0,-14.14 0,-21.21 -7.0703,0 -14.1328,0 -21.1992,0"
         style="fill:#ffffff;fill-opacity:1;fill-rule:nonzero;stroke:none"
         transform="matrix(0.66666667,0,0,-0.66666667,813.70077,1122.5197)"
         clip-path="url(#clipPath261)" />
      <path
         id="path262"
         d="m 59.9922,1131.15 c 2.3594,0 4.7148,0 7.0742,0 0.4141,0 0.75,0.3 0.8125,0.71 0.0586,0.39 -0.1836,0.78 -0.5625,0.89 -0.1016,0.03 -0.2109,0.05 -0.3203,0.05 -4.668,0 -9.3398,0 -14.0117,0 -0.4805,0 -0.8008,-0.26 -0.8828,-0.72 -0.0821,-0.45 0.2968,-0.92 0.7617,-0.93 0.2344,0 0.4726,0 0.707,0 2.1367,0 4.2813,0 6.4219,0"
         style="fill:#ffffff;fill-opacity:1;fill-rule:nonzero;stroke:none"
         transform="matrix(0.66666667,0,0,-0.66666667,813.70077,1122.5197)" />
    </g>
  </g>
</svg>
