<?xml version="1.0" encoding="UTF-8" standalone="no"?>
<!-- Created with Inkscape (http://www.inkscape.org/) -->

<svg
   width="100"
   height="100"
   viewBox="0 0 26.458333 26.458333"
   version="1.1"
   id="svg1"
   sodipodi:docname="childlock-icon.svg"
   inkscape:version="1.4.3 (0d15f75042, 2025-12-25)"
   xmlns:inkscape="http://www.inkscape.org/namespaces/inkscape"
   xmlns:sodipodi="http://sodipodi.sourceforge.net/DTD/sodipodi-0.dtd"
   xmlns="http://www.w3.org/2000/svg"
   xmlns:svg="http://www.w3.org/2000/svg">
  <sodipodi:namedview
     id="namedview1"
     pagecolor="#ffffff"
     bordercolor="#000000"
     borderopacity="0.25"
     inkscape:showpageshadow="2"
     inkscape:pageopacity="0.0"
     inkscape:pagecheckerboard="0"
     inkscape:deskcolor="#d1d1d1"
     inkscape:document-units="mm"
     inkscape:zoom="1.1893251"
     inkscape:cx="-325.39463"
     inkscape:cy="217.35016"
     inkscape:window-width="1920"
     inkscape:window-height="1011"
     inkscape:window-x="0"
     inkscape:window-y="0"
     inkscape:window-maximized="1"
     inkscape:current-layer="layer1" />
  <defs
     id="defs1">
    <clipPath
       clipPathUnits="userSpaceOnUse"
       id="clipPath3088">
      <path
         d="m 680.83557,511.70301 h 17.0078 v 17.0078 h -17.0078 z"
         clip-rule="evenodd"
         id="path3088" />
    </clipPath>
  </defs>
  <g
     inkscape:label="Layer 1"
     inkscape:groupmode="layer"
     id="layer1">
    <g
       id="g10534"
       transform="matrix(2.3335172,0,0,2.3335172,-27642.151,-1796.8962)"
       style="fill:#ffffff">
      <path
         id="path3087"
         d="m 684.332,519.48 c 0.352,-0.3 0.699,-0.597 1.043,-0.894 0.18,-0.152 0.34,-0.152 0.52,0.004 0.343,0.293 0.683,0.59 1.035,0.887 0.058,-0.047 0.113,-0.098 0.172,-0.145 0.289,-0.25 0.578,-0.496 0.863,-0.746 0.094,-0.082 0.199,-0.121 0.324,-0.121 0.52,0.004 1.043,0 1.566,0.004 0.059,0 0.09,-0.016 0.122,-0.074 0.617,-1.211 1.589,-1.985 2.925,-2.243 1.434,-0.277 2.688,0.118 3.731,1.137 0.656,0.637 1.039,1.422 1.168,2.328 0.312,2.184 -1.113,4.199 -3.281,4.649 -1.809,0.379 -3.684,-0.532 -4.508,-2.184 -0.047,-0.094 -0.098,-0.129 -0.203,-0.129 -1.336,0.008 -2.668,0.008 -4,0.012 -1.532,0 -3.059,0.004 -4.586,0.008 -0.254,0 -0.383,-0.133 -0.383,-0.379 0,-0.383 0,-0.77 -0.004,-1.153 -0.004,-0.132 0.047,-0.23 0.144,-0.316 0.602,-0.508 1.2,-1.02 1.797,-1.531 0.18,-0.153 0.344,-0.153 0.524,0 0.34,0.293 0.683,0.586 1.031,0.886 z m -2.809,1.801 c 0.04,0 0.071,0 0.098,0 1.504,0 3.004,0 4.508,-0.004 1.312,0 2.629,0 3.945,-0.007 0.227,-0.004 0.364,0.082 0.453,0.296 0.645,1.504 2.227,2.344 3.836,2.028 1.867,-0.364 3.102,-2.16 2.723,-4.055 -0.371,-1.844 -2.098,-3.043 -3.938,-2.73 -1.253,0.207 -2.128,0.925 -2.644,2.089 -0.082,0.192 -0.18,0.258 -0.387,0.258 -0.558,0 -1.121,0 -1.683,0.004 -0.043,0 -0.098,0.02 -0.129,0.051 -0.379,0.32 -0.75,0.644 -1.129,0.969 -0.16,0.136 -0.336,0.136 -0.492,-0.004 -0.133,-0.113 -0.266,-0.227 -0.399,-0.34 -0.215,-0.188 -0.433,-0.371 -0.648,-0.559 -0.028,0.02 -0.047,0.036 -0.067,0.051 -0.328,0.281 -0.652,0.563 -0.98,0.844 -0.172,0.148 -0.34,0.148 -0.508,0 -0.187,-0.156 -0.371,-0.32 -0.559,-0.477 -0.16,-0.136 -0.32,-0.277 -0.48,-0.41 -0.012,0.004 -0.02,0.004 -0.023,0.008 -0.485,0.418 -0.973,0.832 -1.457,1.246 -0.02,0.02 -0.04,0.051 -0.04,0.074 0,0.219 0,0.438 0,0.668"
         style="fill:#ffffff;fill-opacity:1;fill-rule:nonzero;stroke:none"
         transform="matrix(0.66666667,0,0,-0.66666667,11391.811,1122.5197)"
         clip-path="url(#clipPath3088)" />
      <path
         id="path3089-6"
         d="m 694.691,521.586 c -0.793,-0.031 -1.312,-0.664 -1.273,-1.375 0.043,-0.816 0.719,-1.301 1.387,-1.273 0.734,0.031 1.324,0.648 1.277,1.417 -0.043,0.739 -0.676,1.293 -1.391,1.231 z m 0.704,-1.316 c 0,-0.356 -0.293,-0.653 -0.645,-0.649 -0.355,0 -0.648,0.293 -0.648,0.649 0,0.359 0.289,0.648 0.648,0.648 0.355,0 0.645,-0.289 0.645,-0.648"
         style="fill:#ffffff;fill-opacity:1;fill-rule:nonzero;stroke:none"
         transform="matrix(0.66666667,0,0,-0.66666667,11391.811,1122.5197)" />
    </g>
  </g>
</svg>
