<?xml version="1.0" encoding="UTF-8" standalone="no"?>
<!-- Created with Inkscape (http://www.inkscape.org/) -->

<svg
   width="26.616352mm"
   height="26.458334mm"
   viewBox="0 0 26.616352 26.458334"
   version="1.1"
   id="svg1"
   sodipodi:docname="cooking-time-icon.svg"
   inkscape:version="1.4.3 (0d15f75042, 2025-12-25)"
   xmlns:inkscape="http://www.inkscape.org/namespaces/inkscape"
   xmlns:sodipodi="http://sodipodi.sourceforge.net/DTD/sodipodi-0.dtd"
   xmlns="http://www.w3.org/2000/svg"
   xmlns:svg="http://www.w3.org/2000/svg">
  <sodipodi:namedview
     id="namedview1"
     pagecolor="#ffffff"
     bordercolor="#000000"
     borderopacity="0.25"
     inkscape:showpageshadow="2"
     inkscape:pageopacity="0.0"
     inkscape:pagecheckerboard="0"
     inkscape:deskcolor="#d1d1d1"
     inkscape:document-units="mm"
     inkscape:zoom="0.70644641"
     inkscape:cx="-108.99624"
     inkscape:cy="-4.9543744"
     inkscape:window-width="1920"
     inkscape:window-height="1011"
     inkscape:window-x="0"
     inkscape:window-y="0"
     inkscape:window-maximized="1"
     inkscape:current-layer="layer1" />
  <defs
     id="defs1">
    <clipPath
       clipPathUnits="userSpaceOnUse"
       id="clipPath2462">
      <path
         d="m 48.187476,1128.44 h 17.1094 v 17.0078 h -17.1094 z"
         clip-rule="evenodd"
         id="path2462" />
    </clipPath>
  </defs>
  <g
     inkscape:label="Layer 1"
     inkscape:groupmode="layer"
     id="layer1"
     transform="translate(-45.772915,-228.07085)">
    <path
       id="path2461"
       d="m 49.7188,1137.12 c 0.0742,0.13 0.1406,0.24 0.2109,0.36 0.043,0.07 0.1094,0.11 0.2031,0.11 1.2539,0 2.5117,0.01 3.7656,0.02 2.4727,0 4.9454,0.01 7.4219,0.01 0.0781,0 0.1602,0 0.2383,0 0.0039,0.01 0.0039,0.02 0.0078,0.03 -0.0312,0.03 -0.0586,0.05 -0.0859,0.07 -1.5664,1.21 -3.0391,2.52 -4.5196,3.82 -0.2734,0.25 -0.207,0.6 0.0196,0.8 0.25,0.21 0.5547,0.23 0.8047,0.01 1.082,-0.94 2.1757,-1.86 3.2617,-2.8 0.7929,-0.68 1.582,-1.38 2.3672,-2.08 0.125,-0.1 0.2304,-0.23 0.3554,-0.36 0,0.04 0,0.08 0,0.12 0.0039,2.37 0.0078,4.74 0.0157,7.11 0,0.22 0.0039,0.44 0.0195,0.65 0.0078,0.07 0.043,0.16 0.0898,0.21 0.3243,0.34 0.961,0.33 1.2774,-0.01 0.0469,-0.05 0.082,-0.12 0.0898,-0.19 0.0156,-0.13 0.0156,-0.26 0.0156,-0.39 0.0079,-5.22 0.0118,-10.44 0.0196,-15.66 0,-0.16 -0.1133,-0.27 -0.2344,-0.35 -0.3164,-0.23 -0.8281,-0.21 -1.125,0.04 -0.0898,0.08 -0.1367,0.16 -0.1406,0.29 -0.0039,1.48 -0.0156,2.96 -0.0235,4.44 -0.0039,1.1 -0.0039,2.2 -0.0078,3.31 0,0.03 0,0.06 0,0.08 -0.9336,-0.94 -1.9687,-1.77 -2.9648,-2.64 -1,-0.87 -2.0156,-1.72 -3.0156,-2.59 -0.3555,-0.31 -0.8789,-0.09 -0.9922,0.28 -0.0547,0.18 -0.0313,0.34 0.1133,0.47 0.6562,0.58 1.2968,1.17 1.9648,1.72 0.8633,0.73 1.7461,1.45 2.6211,2.16 0.0234,0.03 0.0508,0.05 0.1016,0.09 -0.0704,0 -0.1094,0 -0.1446,0 -2.3672,0.01 -4.7344,0.02 -7.0976,0.03 -1.3828,0 -2.7657,0.01 -4.1446,0 -0.2031,0 -0.3203,0.09 -0.4023,0.25 -0.0313,0.06 -0.0508,0.12 -0.0859,0.21 0,-0.06 0,-0.1 0,-0.13 0,-1.89 0,-3.78 -0.004,-5.67 -0.0039,-0.67 -0.0195,-1.34 -0.0234,-2.01 0,-0.13 -0.0625,-0.22 -0.1562,-0.29 -0.3282,-0.27 -0.8711,-0.26 -1.1914,0.01 -0.0821,0.07 -0.1172,0.15 -0.1172,0.26 -0.0078,0.65 -0.0196,1.3 -0.0235,1.95 -0.0039,4.67 -0.0078,9.34 -0.0156,14.02 0,0.14 0.0547,0.25 0.1484,0.35 0.3282,0.34 1.0469,0.28 1.3164,-0.11 0.0469,-0.07 0.0704,-0.14 0.0704,-0.22 -0.0039,-2.55 -0.0039,-5.1 -0.0039,-7.65 0,-0.04 0,-0.08 0,-0.13"
       style="fill:#ffffff;fill-opacity:1;fill-rule:nonzero;stroke:none"
       transform="matrix(1.5556588,0,0,-1.5556588,-29.190393,2009.9968)"
       clip-path="url(#clipPath2462)" />
  </g>
</svg>
