<?xml version="1.0" encoding="UTF-8" standalone="no"?>
<!-- Created with Inkscape (http://www.inkscape.org/) -->

<svg
   width="24.273346mm"
   height="26.458332mm"
   viewBox="0 0 24.273346 26.458332"
   version="1.1"
   id="svg1"
   sodipodi:docname="end-time-icon.svg"
   inkscape:version="1.4.3 (0d15f75042, 2025-12-25)"
   xmlns:inkscape="http://www.inkscape.org/namespaces/inkscape"
   xmlns:sodipodi="http://sodipodi.sourceforge.net/DTD/sodipodi-0.dtd"
   xmlns="http://www.w3.org/2000/svg"
   xmlns:svg="http://www.w3.org/2000/svg">
  <sodipodi:namedview
     id="namedview1"
     pagecolor="#ffffff"
     bordercolor="#000000"
     borderopacity="0.25"
     inkscape:showpageshadow="2"
     inkscape:pageopacity="0.0"
     inkscape:pagecheckerboard="0"
     inkscape:deskcolor="#d1d1d1"
     inkscape:document-units="mm"
     inkscape:zoom="0.70644641"
     inkscape:cx="-234.9789"
     inkscape:cy="-16.278659"
     inkscape:window-width="1920"
     inkscape:window-height="1011"
     inkscape:window-x="0"
     inkscape:window-y="0"
     inkscape:window-maximized="1"
     inkscape:current-layer="layer1" />
  <defs
     id="defs1">
    <clipPath
       clipPathUnits="userSpaceOnUse"
       id="clipPath2473">
      <path
         d="m 135.85498,1077.77 h 15.6016 v 17.0078 h -15.6016 z"
         clip-rule="evenodd"
         id="path2473" />
    </clipPath>
  </defs>
  <g
     inkscape:label="Layer 1"
     inkscape:groupmode="layer"
     id="layer1"
     transform="translate(-111.125,-145.25621)">
    <path
       id="path2472"
       d="m 149.93,1086.11 c -0.125,-0.13 -0.242,-0.27 -0.375,-0.39 -1.543,-1.34 -3.082,-2.68 -4.625,-4.02 -0.344,-0.29 -0.688,-0.59 -1.035,-0.87 -0.2,-0.17 -0.422,-0.16 -0.641,-0.05 -0.211,0.11 -0.328,0.29 -0.332,0.53 0,0.12 0.039,0.21 0.133,0.3 1.488,1.33 2.992,2.65 4.578,3.87 0.031,0.03 0.062,0.06 0.086,0.1 -0.039,0 -0.078,0.01 -0.117,0.01 -2.356,0 -4.711,0.01 -7.067,0.02 -1.394,0 -2.793,0 -4.187,0 -0.188,0 -0.305,0.08 -0.383,0.22 -0.203,0.38 -0.113,0.72 0.156,1.03 0.031,0.03 0.094,0.05 0.145,0.05 0.429,0.01 0.859,0.02 1.289,0.02 1.836,0.01 3.675,0.01 5.511,0.01 1.469,0 2.938,0.01 4.407,0.01 0.078,0 0.16,0 0.242,0 0,0.01 0.004,0.02 0.008,0.03 -0.028,0.02 -0.051,0.04 -0.075,0.06 -1.546,1.18 -2.996,2.48 -4.449,3.76 -0.094,0.09 -0.222,0.16 -0.242,0.29 -0.019,0.11 -0.027,0.22 0,0.32 0.098,0.3 0.449,0.49 0.758,0.41 0.062,-0.02 0.125,-0.06 0.18,-0.11 0.793,-0.67 1.589,-1.34 2.378,-2.02 0.993,-0.86 1.985,-1.73 2.973,-2.58 0.164,-0.15 0.317,-0.3 0.473,-0.45 0.07,-0.06 0.136,-0.14 0.211,-0.23 0,0.03 0,0.07 0,0.1 0.004,2.13 0.004,4.27 0.008,6.4 0,0.41 0.023,0.83 0.011,1.24 -0.011,0.28 0.125,0.43 0.36,0.54 0.312,0.14 0.761,0.07 0.996,-0.16 0.086,-0.07 0.129,-0.17 0.129,-0.28 0.004,-0.69 0.015,-1.37 0.015,-2.05 0.004,-4.61 0.004,-9.22 0.008,-13.83 0,-0.25 -0.105,-0.39 -0.297,-0.5 -0.308,-0.18 -0.765,-0.15 -1.039,0.06 -0.109,0.09 -0.164,0.19 -0.168,0.34 -0.004,0.93 -0.015,1.86 -0.019,2.8 -0.004,1.64 0,3.28 -0.004,4.92 0,0.04 0,0.07 0,0.1"
       style="fill:#ffffff;fill-opacity:1;fill-rule:nonzero;stroke:none"
       transform="matrix(1.5558242,0,0,-1.5558242,-100.24147,1848.538)"
       clip-path="url(#clipPath2473)" />
  </g>
</svg>
