<?xml version="1.0" encoding="UTF-8" standalone="no"?>
<!-- Created with Inkscape (http://www.inkscape.org/) -->

<svg
   width="128"
   height="128"
   viewBox="0 0 128 128"
   version="1.1"
   id="svg1"
   sodipodi:docname="frozen.svg"
   inkscape:version="1.4.3 (0d15f75042, 2025-12-25)"
   xmlns:inkscape="http://www.inkscape.org/namespaces/inkscape"
   xmlns:sodipodi="http://sodipodi.sourceforge.net/DTD/sodipodi-0.dtd"
   xmlns="http://www.w3.org/2000/svg"
   xmlns:svg="http://www.w3.org/2000/svg">
  <sodipodi:namedview
     id="namedview1"
     pagecolor="#ffffff"
     bordercolor="#000000"
     borderopacity="0.25"
     inkscape:showpageshadow="2"
     inkscape:pageopacity="0.0"
     inkscape:pagecheckerboard="0"
     inkscape:deskcolor="#d1d1d1"
     inkscape:document-units="mm"
     inkscape:zoom="0.67718255"
     inkscape:cx="-195.66364"
     inkscape:cy="94.509228"
     inkscape:window-width="1908"
     inkscape:window-height="1015"
     inkscape:window-x="20"
     inkscape:window-y="20"
     inkscape:window-maximized="0"
     inkscape:current-layer="layer1" />
  <defs
     id="defs1">
    <clipPath
       clipPathUnits="userSpaceOnUse"
       id="clipPath311">
      <path
         d="m 48.187493,1016.45 h 23.5859 v 23.582 h -23.5859 z"
         clip-rule="evenodd"
         id="path311" />
    </clipPath>
  </defs>
  <g
     inkscape:label="Layer 1"
     inkscape:groupmode="layer"
     id="layer1"
     transform="translate(-51.454172,-92.916028)">
    <g
       id="g481"
       transform="matrix(8.1404592,0,0,8.141803,-6833.956,-3401.2611)"
       style="fill:#ffffff">
      <path
         id="path310"
         d="m 59.9648,1040.03 c -3.6953,0 -7.3906,0 -11.0859,0 -0.0976,0 -0.1992,0 -0.2891,-0.03 -0.2265,-0.07 -0.3554,-0.23 -0.3906,-0.46 -0.0078,-0.07 -0.0117,-0.14 -0.0117,-0.21 0,-7.39 0,-14.78 0.0039,-22.17 0,-0.1 0.0039,-0.21 0.0313,-0.3 0.0703,-0.24 0.2773,-0.39 0.5664,-0.41 0.0429,0 0.0898,0 0.1328,0 7.3711,0 14.7422,0 22.1172,0 0.0898,0 0.1836,0.01 0.2734,0.03 0.2422,0.04 0.4258,0.25 0.4492,0.49 0.0078,0.08 0.0117,0.16 0.0117,0.23 0,7.37 0,14.73 0,22.09 0,0.08 -0.0039,0.17 -0.0117,0.25 -0.0312,0.26 -0.2539,0.47 -0.5195,0.49 -0.0625,0.01 -0.125,0 -0.1875,0 -3.6992,0 -7.3945,0 -11.0899,0 z M 49.375,1017.64 c 0,7.08 0,14.14 0,21.21 7.0742,0 14.1367,0 21.2031,0 0,-7.07 0,-14.14 0,-21.21 -7.0703,0 -14.1289,0 -21.2031,0"
         style="fill:#ffffff;fill-opacity:1;fill-rule:nonzero;stroke:none"
         transform="matrix(0.66666667,0,0,-0.66666667,813.70077,1122.5197)"
         clip-path="url(#clipPath311)" />
      <path
         id="path312"
         d="m 64.8867,1033.7 c 0.2461,0.43 0.4766,0.83 0.7071,1.23 0.2773,0.48 0.5585,0.96 0.832,1.44 0.1133,0.2 0.1094,0.42 -0.0195,0.61 -0.125,0.2 -0.3165,0.29 -0.5469,0.27 -0.2227,-0.02 -0.3711,-0.15 -0.4805,-0.34 -0.4766,-0.83 -0.9531,-1.65 -1.4297,-2.48 -0.0273,-0.04 -0.0508,-0.08 -0.0898,-0.14 -0.0899,0.16 -0.1719,0.3 -0.2539,0.44 -0.4297,0.74 -0.8555,1.48 -1.2852,2.22 -0.1328,0.23 -0.3633,0.34 -0.6055,0.3 -0.2304,-0.04 -0.4218,-0.21 -0.4765,-0.45 -0.043,-0.17 0,-0.33 0.0898,-0.48 0.4727,-0.82 0.9453,-1.64 1.418,-2.46 0.0234,-0.04 0.0469,-0.09 0.0859,-0.16 -0.0781,0 -0.1328,0 -0.1875,0 -0.8906,0 -1.7851,0 -2.6757,0 -0.1055,0 -0.2149,-0.01 -0.3165,-0.04 -0.2812,-0.09 -0.4375,-0.37 -0.3867,-0.67 0.0469,-0.28 0.293,-0.47 0.6133,-0.48 0.5234,0 1.043,0 1.5664,0 0.4531,0 0.9063,0 1.3867,0 -0.039,-0.07 -0.0703,-0.13 -0.1015,-0.19 -0.461,-0.79 -0.918,-1.59 -1.3828,-2.39 -0.0977,-0.16 -0.1602,-0.33 -0.1094,-0.52 0.0625,-0.24 0.2187,-0.39 0.4609,-0.44 0.2656,-0.05 0.4883,0.06 0.6289,0.3 0.3946,0.68 0.7852,1.36 1.1758,2.03 0.1133,0.2 0.2305,0.4 0.3555,0.62 0.039,-0.06 0.0703,-0.11 0.0976,-0.16 0.4805,-0.83 0.961,-1.66 1.4414,-2.49 0.1329,-0.23 0.336,-0.33 0.6016,-0.3 0.2344,0.03 0.3906,0.16 0.4688,0.38 0.0625,0.18 0.039,0.35 -0.0586,0.52 -0.4844,0.84 -0.9649,1.68 -1.4532,2.52 -0.0195,0.03 -0.0351,0.07 -0.0625,0.12 0.0703,0 0.1211,0 0.1719,0 0.9727,0 1.9492,0 2.9258,0 0.4336,0 0.7109,0.31 0.6406,0.71 -0.043,0.24 -0.2461,0.44 -0.4844,0.46 -0.0781,0.01 -0.1562,0.02 -0.2343,0.02 -0.9414,0 -1.8828,0 -2.8243,0 -0.0546,0 -0.1132,0 -0.2031,0"
         style="fill:#ffffff;fill-opacity:1;fill-rule:nonzero;stroke:none"
         transform="matrix(0.66666667,0,0,-0.66666667,813.70077,1122.5197)" />
      <path
         id="path313"
         d="m 60.957,1022.44 c 0,-1.5 1.0352,-2.83 2.4414,-3.14 0.9688,-0.21 1.8086,0.1 2.5196,0.77 0.6601,0.62 1.0039,1.39 1.0351,2.29 0.0117,0.36 -0.0508,0.71 -0.1914,1.04 -0.4219,0.98 -0.8476,1.96 -1.2812,2.93 -0.3164,0.7 -0.6485,1.39 -0.9805,2.09 -0.1719,0.36 -0.543,0.49 -0.8594,0.29 -0.0898,-0.06 -0.1758,-0.15 -0.2187,-0.25 -0.7149,-1.54 -1.4297,-3.08 -2.1289,-4.64 -0.2032,-0.45 -0.3594,-0.92 -0.336,-1.38 z m 2.9922,4.38 c 0.1406,-0.3 0.2735,-0.57 0.3985,-0.84 0.4257,-0.96 0.8593,-1.92 1.2734,-2.89 0.2969,-0.68 0.1523,-1.32 -0.2773,-1.91 -0.625,-0.84 -1.6211,-1 -2.4063,-0.39 -0.5859,0.46 -1.0586,1.37 -0.668,2.29 0.3203,0.76 0.6524,1.51 0.9883,2.26 0.2188,0.48 0.4492,0.96 0.6914,1.48"
         style="fill:#ffffff;fill-opacity:1;fill-rule:nonzero;stroke:none"
         transform="matrix(0.66666667,0,0,-0.66666667,813.70077,1122.5197)" />
      <path
         id="path314"
         d="m 53.0469,1028.25 c -0.5196,-0.61 -1.0274,-1.21 -1.5352,-1.81 -0.164,-0.19 -0.3398,-0.37 -0.3594,-0.65 -0.0312,-0.35 0.1485,-0.68 0.4688,-0.83 0.3242,-0.15 0.7227,-0.08 0.9531,0.19 0.7383,0.86 1.4766,1.72 2.2071,2.59 0.246,0.3 0.2382,0.73 -0.0118,1.03 -0.7226,0.86 -1.4531,1.71 -2.1875,2.57 -0.2968,0.34 -0.8125,0.36 -1.1562,0.06 -0.332,-0.28 -0.3789,-0.79 -0.0899,-1.14 0.4102,-0.49 0.8321,-0.98 1.25,-1.47 0.1485,-0.18 0.3008,-0.36 0.461,-0.54"
         style="fill:#ffffff;fill-opacity:1;fill-rule:nonzero;stroke:none"
         transform="matrix(0.66666667,0,0,-0.66666667,813.70077,1122.5197)" />
      <path
         id="path315"
         d="m 56.7305,1028.24 c -0.3399,-0.39 -0.6719,-0.79 -1.0078,-1.18 -0.2227,-0.26 -0.4493,-0.52 -0.6719,-0.79 -0.3164,-0.37 -0.2891,-0.88 0.0664,-1.19 0.3437,-0.3 0.8555,-0.26 1.1719,0.1 0.7265,0.85 1.4453,1.69 2.1601,2.54 0.2617,0.31 0.2539,0.75 -0.0078,1.06 -0.7187,0.85 -1.4375,1.7 -2.1601,2.54 -0.3047,0.35 -0.8204,0.39 -1.1641,0.09 -0.3438,-0.29 -0.3906,-0.8 -0.0938,-1.16 0.5352,-0.63 1.0743,-1.26 1.6094,-1.89 0.0313,-0.04 0.0586,-0.07 0.0977,-0.12"
         style="fill:#ffffff;fill-opacity:1;fill-rule:nonzero;stroke:none"
         transform="matrix(0.66666667,0,0,-0.66666667,813.70077,1122.5197)" />
    </g>
  </g>
</svg>
