<?xml version="1.0" encoding="UTF-8" standalone="no"?>
<!-- Created with Inkscape (http://www.inkscape.org/) -->

<svg
   width="128"
   height="128"
   viewBox="0 0 128 128"
   version="1.1"
   id="svg1"
   sodipodi:docname="grill-small.svg"
   inkscape:version="1.4.3 (0d15f75042, 2025-12-25)"
   xmlns:inkscape="http://www.inkscape.org/namespaces/inkscape"
   xmlns:sodipodi="http://sodipodi.sourceforge.net/DTD/sodipodi-0.dtd"
   xmlns="http://www.w3.org/2000/svg"
   xmlns:svg="http://www.w3.org/2000/svg">
  <sodipodi:namedview
     id="namedview1"
     pagecolor="#ffffff"
     bordercolor="#000000"
     borderopacity="0.25"
     inkscape:showpageshadow="2"
     inkscape:pageopacity="0.0"
     inkscape:pagecheckerboard="0"
     inkscape:deskcolor="#d1d1d1"
     inkscape:document-units="mm"
     inkscape:zoom="0.93895903"
     inkscape:cx="-88.928267"
     inkscape:cy="46.860404"
     inkscape:window-width="1908"
     inkscape:window-height="1015"
     inkscape:window-x="20"
     inkscape:window-y="20"
     inkscape:window-maximized="0"
     inkscape:current-layer="layer1" />
  <defs
     id="defs1">
    <clipPath
       clipPathUnits="userSpaceOnUse"
       id="clipPath210">
      <path
         d="m 48.187493,1389.63 h 23.5859 v 23.582 h -23.5859 z"
         clip-rule="evenodd"
         id="path210" />
    </clipPath>
  </defs>
  <g
     inkscape:label="Layer 1"
     inkscape:groupmode="layer"
     id="layer1"
     transform="translate(-43.301172,-34.386262)">
    <g
       id="g475"
       transform="matrix(8.1404592,0,0,8.1424148,-6842.109,-1434.3388)"
       style="fill:#ffffff">
      <path
         id="path209"
         d="m 59.9688,1413.21 c -3.6954,0 -7.3868,0 -11.0821,0 -0.4804,0.01 -0.6992,-0.31 -0.6992,-0.69 0.0078,-7.4 0.0078,-14.8 0.0078,-22.2 0,-0.47 0.2188,-0.69 0.6914,-0.69 7.3946,0 14.7852,0 22.1797,0 0.4805,0 0.707,0.23 0.707,0.7 0,7.4 0,14.79 0,22.19 0,0.36 -0.1367,0.58 -0.4179,0.66 -0.0821,0.03 -0.1758,0.03 -0.2617,0.03 -3.7071,0 -7.418,0 -11.125,0 z m 10.6171,-1.18 c 0,-7.08 0,-14.14 0,-21.21 -7.0742,0 -14.1406,0 -21.2031,0 0,7.07 0,14.14 0,21.21 7.0703,0 14.1328,0 21.2031,0"
         style="fill:#ffffff;fill-opacity:1;fill-rule:nonzero;stroke:none"
         transform="matrix(0.66666667,0,0,-0.66666667,813.70077,1122.5197)"
         clip-path="url(#clipPath210)" />
      <path
         id="path211"
         d="m 59.9805,1408.23 c 0.0625,-0.09 0.0859,-0.14 0.125,-0.18 0.5898,-0.59 1.1797,-1.17 1.7734,-1.76 0.3672,-0.38 0.8555,-0.39 1.2266,-0.02 0.832,0.83 1.664,1.66 2.4922,2.5 0.3242,0.32 0.3203,0.84 0,1.16 -0.3204,0.32 -0.8399,0.32 -1.1797,-0.01 -0.6016,-0.6 -1.1953,-1.19 -1.7891,-1.79 -0.0391,-0.04 -0.0703,-0.09 -0.1133,-0.15 -0.0586,0.06 -0.0976,0.09 -0.1328,0.13 -0.5859,0.59 -1.1758,1.18 -1.7617,1.77 -0.4023,0.4 -0.875,0.4 -1.2813,-0.01 -0.582,-0.58 -1.1679,-1.17 -1.75,-1.75 -0.039,-0.04 -0.0625,-0.09 -0.0937,-0.14 -0.0234,0 -0.0469,0 -0.0703,0 -0.0274,0.04 -0.043,0.1 -0.082,0.14 -0.5977,0.6 -1.1993,1.2 -1.8008,1.8 -0.4297,0.42 -1.1094,0.3 -1.3516,-0.24 -0.1367,-0.3 -0.082,-0.66 0.1602,-0.9 0.8437,-0.85 1.6914,-1.7 2.5429,-2.55 0.3203,-0.32 0.8282,-0.3 1.1524,0.02 0.6015,0.6 1.2031,1.2 1.8047,1.8 0.0351,0.04 0.0625,0.09 0.1289,0.18"
         style="fill:#ffffff;fill-opacity:1;fill-rule:nonzero;stroke:none"
         transform="matrix(0.66666667,0,0,-0.66666667,813.70077,1122.5197)" />
    </g>
  </g>
</svg>
