<?xml version="1.0" encoding="UTF-8" standalone="no"?>
<!-- Created with Inkscape (http://www.inkscape.org/) -->

<svg
   width="128"
   height="128"
   viewBox="0 0 128 128"
   version="1.1"
   id="svg1"
   inkscape:version="1.4.3 (0d15f75042, 2025-12-25)"
   sodipodi:docname="hot-air.svg"
   xmlns:inkscape="http://www.inkscape.org/namespaces/inkscape"
   xmlns:sodipodi="http://sodipodi.sourceforge.net/DTD/sodipodi-0.dtd"
   xmlns="http://www.w3.org/2000/svg"
   xmlns:svg="http://www.w3.org/2000/svg">
  <sodipodi:namedview
     id="namedview1"
     pagecolor="#ffffff"
     bordercolor="#000000"
     borderopacity="0.25"
     inkscape:showpageshadow="2"
     inkscape:pageopacity="0.0"
     inkscape:pagecheckerboard="0"
     inkscape:deskcolor="#ffffff"
     inkscape:document-units="mm"
     borderlayer="true"
     showborder="false"
     inkscape:clip-to-page="false"
     inkscape:zoom="0.71022511"
     inkscape:cx="-108.41633"
     inkscape:cy="449.85737"
     inkscape:window-width="1920"
     inkscape:window-height="1011"
     inkscape:window-x="0"
     inkscape:window-y="0"
     inkscape:window-maximized="1"
     inkscape:current-layer="layer1" />
  <defs
     id="defs1">
    <clipPath
       clipPathUnits="userSpaceOnUse"
       id="clipPath93">
      <path
         d="m 70.8672,594.88301 h 23.582 V 618.465 h -23.582 z"
         clip-rule="evenodd"
         id="path93" />
    </clipPath>
  </defs>
  <g
     inkscape:label="Layer 1"
     inkscape:groupmode="layer"
     id="layer1"
     transform="translate(-89.646717,-105.9969)">
    <g
       id="g471"
       transform="matrix(8.141803,0,0,8.1418065,-295.01114,-5676.393)"
       style="fill:#ffffff;fill-opacity:1">
      <path
         id="path92"
         d="m 82.6719,594.887 c 3.7109,0 7.4179,0.004 11.1289,-0.004 0.3984,0 0.6523,0.297 0.6484,0.652 -0.0039,7.426 -0.0039,14.856 -0.0039,22.285 0,0.407 -0.2422,0.645 -0.6523,0.645 -7.4258,0 -14.8477,0 -22.2696,0 -0.4179,0 -0.6523,-0.238 -0.6523,-0.656 0,-7.426 0,-14.852 -0.0039,-22.274 0,-0.387 0.2891,-0.652 0.6484,-0.652 3.7188,0.008 7.4375,0.004 11.1563,0.004 z m -10.6211,22.386 c 7.0781,0 14.1445,0 21.207,0 0,-7.074 0,-14.14 0,-21.199 -7.0742,0 -14.1406,0 -21.207,0 0,7.067 0,14.125 0,21.199"
         style="fill:#ffffff;fill-opacity:1;fill-rule:nonzero;stroke:none"
         transform="matrix(0.66666667,0,0,-0.66666667,0,1122.5197)"
         clip-path="url(#clipPath93)" />
      <path
         id="path94"
         d="m 91.4531,606.672 c 0,4.918 -4.0429,8.855 -8.9062,8.797 -4.6875,-0.059 -8.6836,-3.875 -8.6836,-8.801 0,-4.797 3.8672,-8.793 8.7969,-8.789 4.9648,0 8.7929,4.027 8.7929,8.793 z m -8.7968,7.613 c 4.0976,0.031 7.5351,-3.308 7.621,-7.453 0.086,-4.223 -3.2929,-7.742 -7.5429,-7.781 -4.293,-0.039 -7.668,3.429 -7.6953,7.558 -0.0313,4.336 3.5312,7.711 7.6172,7.676"
         style="fill:#ffffff;fill-opacity:1;fill-rule:nonzero;stroke:none"
         transform="matrix(0.66666667,0,0,-0.66666667,0,1122.5197)" />
      <path
         id="path95"
         d="m 81.6055,607.355 c -0.3633,-0.046 -0.7422,-0.078 -1.1172,-0.148 -0.8281,-0.16 -1.6055,-0.457 -2.332,-0.894 -0.6133,-0.372 -0.8243,-0.911 -0.754,-1.59 0.0547,-0.496 0.1875,-0.973 0.4258,-1.414 0.1407,-0.262 0.3125,-0.496 0.5938,-0.641 0.2617,-0.129 0.5195,-0.137 0.789,-0.051 0.5625,0.176 1.0313,0.512 1.4805,0.875 0.6992,0.567 1.3164,1.219 1.8399,1.953 0.0195,0.028 0.039,0.055 0.0664,0.094 0.0351,-0.051 0.0625,-0.09 0.0898,-0.133 0.6406,-0.98 1.457,-1.773 2.4844,-2.343 0.3086,-0.172 0.6367,-0.317 1.0078,-0.239 0.1719,0.039 0.3516,0.094 0.5078,0.18 0.6172,0.336 1.0898,0.828 1.4141,1.457 0.2656,0.523 0.1797,1.059 -0.3164,1.437 -0.4493,0.344 -0.9571,0.571 -1.4805,0.77 -0.8281,0.312 -1.6836,0.512 -2.5664,0.598 -0.0156,0 -0.0313,0.004 -0.0547,0.011 0.1016,0.223 0.2109,0.434 0.3008,0.653 0.3672,0.898 0.5625,1.836 0.5508,2.812 -0.0079,0.684 -0.3047,1.168 -0.9297,1.461 -0.5586,0.262 -1.1407,0.395 -1.7578,0.363 -0.6563,-0.035 -1.0547,-0.457 -1.0977,-1.14 -0.0586,-0.949 0.1172,-1.863 0.3867,-2.762 0.1367,-0.445 0.3164,-0.879 0.4688,-1.309 z m 0.1836,-1.046 c 0.0039,-0.016 0.0117,-0.036 0.0156,-0.051 -0.0274,-0.043 -0.0508,-0.082 -0.0742,-0.121 -0.4258,-0.621 -0.9297,-1.172 -1.5117,-1.649 -0.3477,-0.285 -0.7266,-0.539 -1.1055,-0.781 -0.2031,-0.129 -0.2422,-0.105 -0.3594,0.113 -0.1601,0.309 -0.2383,0.641 -0.3008,0.981 -0.0586,0.316 0.0625,0.508 0.3321,0.66 0.6015,0.34 1.2382,0.586 1.9179,0.711 0.3594,0.066 0.7227,0.094 1.086,0.137 z m 0.9101,1.351 c -0.0156,0.004 -0.0312,0.008 -0.0469,0.012 -0.039,0.082 -0.082,0.16 -0.121,0.242 -0.375,0.832 -0.6016,1.707 -0.711,2.609 -0.0312,0.286 -0.0117,0.579 -0.0117,0.868 0,0.086 0.043,0.113 0.125,0.117 0.4258,0.027 0.8164,-0.09 1.2031,-0.25 0.2461,-0.106 0.336,-0.274 0.3399,-0.535 0.0039,-0.805 -0.1485,-1.582 -0.4375,-2.332 -0.0977,-0.25 -0.2266,-0.489 -0.3399,-0.731 z m 0.7227,-1.445 c 0.0703,0 0.1054,0 0.1445,0 0.6758,-0.043 1.3359,-0.188 1.9805,-0.399 0.5117,-0.168 1.0117,-0.363 1.4687,-0.656 0.1914,-0.125 0.1992,-0.156 0.0742,-0.351 -0.1953,-0.309 -0.4531,-0.559 -0.7421,-0.786 -0.211,-0.164 -0.4063,-0.183 -0.6407,-0.046 -0.8047,0.461 -1.4765,1.07 -2.0195,1.824 -0.0898,0.125 -0.168,0.258 -0.2656,0.414"
         style="fill:#ffffff;fill-opacity:1;fill-rule:nonzero;stroke:none"
         transform="matrix(0.66666667,0,0,-0.66666667,0,1122.5197)" />
    </g>
  </g>
</svg>
