<?xml version="1.0" encoding="UTF-8" standalone="no"?>
<!-- Created with Inkscape (http://www.inkscape.org/) -->

<svg
   width="128"
   height="128"
   viewBox="0 0 128 128"
   version="1.1"
   id="svg1"
   sodipodi:docname="hot-air-eco.svg"
   inkscape:version="1.4.3 (0d15f75042, 2025-12-25)"
   xmlns:inkscape="http://www.inkscape.org/namespaces/inkscape"
   xmlns:sodipodi="http://sodipodi.sourceforge.net/DTD/sodipodi-0.dtd"
   xmlns="http://www.w3.org/2000/svg"
   xmlns:svg="http://www.w3.org/2000/svg">
  <sodipodi:namedview
     id="namedview1"
     pagecolor="#ffffff"
     bordercolor="#000000"
     borderopacity="0.25"
     inkscape:showpageshadow="2"
     inkscape:pageopacity="0.0"
     inkscape:pagecheckerboard="0"
     inkscape:deskcolor="#d1d1d1"
     inkscape:document-units="mm"
     inkscape:zoom="0.86962773"
     inkscape:cx="211.00983"
     inkscape:cy="185.13669"
     inkscape:window-width="1908"
     inkscape:window-height="1015"
     inkscape:window-x="20"
     inkscape:window-y="20"
     inkscape:window-maximized="0"
     inkscape:current-layer="layer1" />
  <defs
     id="defs1">
    <clipPath
       clipPathUnits="userSpaceOnUse"
       id="clipPath126">
      <path
         d="m 70.8672,449.54301 h 23.582 v 23.5859 h -23.582 z"
         clip-rule="evenodd"
         id="path126" />
    </clipPath>
  </defs>
  <g
     inkscape:label="Layer 1"
     inkscape:groupmode="layer"
     id="layer1"
     transform="translate(-48.434016,-76.527844)">
    <g
       id="g471"
       transform="matrix(8.141803,0,0,8.1404568,-336.22384,-6493.6383)"
       style="fill:#ffffff">
      <path
         id="path125"
         d="m 70.8633,461.328 c 0,-3.703 0,-7.41 0,-11.113 0,-0.352 0.1523,-0.578 0.4414,-0.649 0.0781,-0.015 0.1562,-0.019 0.2344,-0.019 7.4101,0 14.8203,0.004 22.2304,-0.004 0.4336,0 0.6836,0.281 0.6836,0.684 -0.0078,7.406 -0.0039,14.808 -0.0039,22.214 0,0.469 -0.2148,0.688 -0.6836,0.688 -7.4101,0 -14.8203,0 -22.2304,0 -0.4493,0 -0.6719,-0.223 -0.6719,-0.672 0,-3.707 0,-7.418 0,-11.129 z m 22.4023,-10.605 c -0.0586,0 -0.1054,0 -0.1484,0 -6.9727,0 -13.9453,0 -20.9141,-0.004 -0.1367,0 -0.164,0.039 -0.164,0.172 0,6.964 0,13.929 0,20.894 0,0.051 0,0.098 0,0.153 7.0859,0 14.1562,0 21.2304,0 -0.0039,-7.071 -0.0039,-14.133 -0.0039,-21.215"
         style="fill:#ffffff;fill-opacity:1;fill-rule:nonzero;stroke:none"
         transform="matrix(0.66666667,0,0,-0.66666667,0,1122.5197)"
         clip-path="url(#clipPath126)" />
      <path
         id="path127"
         d="m 86.3438,461.344 c 0,3.547 -2.8672,6.402 -6.4375,6.39 -3.5547,-0.011 -6.3907,-2.949 -6.3555,-6.464 0.0312,-3.45 2.8672,-6.372 6.4765,-6.329 3.5157,0.039 6.336,2.934 6.3165,6.403 z m -6.4102,5.449 c 2.9883,0.008 5.4531,-2.43 5.4766,-5.379 0.0234,-3.008 -2.3633,-5.496 -5.3789,-5.531 -3.0665,-0.031 -5.5352,2.41 -5.543,5.433 -0.0078,3.012 2.4375,5.473 5.4453,5.477"
         style="fill:#ffffff;fill-opacity:1;fill-rule:nonzero;stroke:none"
         transform="matrix(0.66666667,0,0,-0.66666667,0,1122.5197)" />
      <path
         id="path128"
         d="m 88.1094,458.172 c 1.289,0 2.5586,0 3.8515,0 -0.0156,0.266 -0.0117,0.519 -0.0546,0.766 -0.0625,0.367 -0.125,0.738 -0.2461,1.085 -0.2383,0.672 -0.7266,1.075 -1.4297,1.204 -0.5039,0.093 -1.0039,0.082 -1.4844,-0.102 -0.6172,-0.234 -1.0352,-0.68 -1.2617,-1.285 -0.336,-0.902 -0.3594,-1.828 -0.0352,-2.738 0.3242,-0.926 1.0078,-1.442 1.9805,-1.567 0.7656,-0.101 1.4844,0.035 2.1601,0.418 0.0508,0.027 0.1016,0.059 0.1602,0.094 -0.1094,0.215 -0.2109,0.426 -0.3047,0.613 -0.2969,-0.133 -0.5781,-0.281 -0.875,-0.387 -0.4297,-0.144 -0.8711,-0.148 -1.3047,-0.007 -0.414,0.132 -0.7109,0.402 -0.8906,0.8 -0.1562,0.344 -0.2227,0.711 -0.2656,1.106 z m 0.0195,0.676 c 0.0156,0.132 0.0234,0.254 0.043,0.371 0.0781,0.469 0.2656,0.883 0.6679,1.168 0.4375,0.301 1.1211,0.304 1.5586,0.023 0.4571,-0.293 0.6875,-0.988 0.6524,-1.562 -0.9649,0 -1.9297,0 -2.9219,0"
         style="fill:#ffffff;fill-opacity:1;fill-rule:nonzero;stroke:none"
         transform="matrix(0.66666667,0,0,-0.66666667,0,1122.5197)" />
      <path
         id="path129"
         d="m 79.8945,460.383 c 0.2774,-0.32 0.5586,-0.672 0.8711,-0.996 0.3321,-0.344 0.7227,-0.614 1.1524,-0.828 0.375,-0.188 0.7343,-0.18 1.0937,0.039 0.418,0.254 0.7539,0.593 0.9844,1.027 0.25,0.473 0.1562,0.855 -0.2734,1.176 -0.3399,0.25 -0.7266,0.418 -1.1211,0.558 -0.5508,0.196 -1.1133,0.336 -1.6953,0.399 -0.0547,0.004 -0.1055,0.015 -0.125,0.019 0.1484,0.438 0.3164,0.868 0.4335,1.309 0.1407,0.516 0.1954,1.051 0.1055,1.59 -0.0351,0.219 -0.1289,0.406 -0.3008,0.543 -0.5468,0.422 -1.1718,0.578 -1.8476,0.476 -0.3906,-0.062 -0.6016,-0.332 -0.6524,-0.738 -0.0742,-0.582 0.0157,-1.156 0.1602,-1.711 0.1172,-0.445 0.2851,-0.875 0.4297,-1.312 0.0117,-0.028 0.0234,-0.059 0.039,-0.098 -0.4921,-0.027 -0.9687,-0.106 -1.4296,-0.254 -0.4063,-0.129 -0.793,-0.301 -1.1563,-0.527 -0.3945,-0.242 -0.5781,-0.59 -0.5547,-1.055 0.0235,-0.461 0.1406,-0.891 0.3789,-1.285 0.2735,-0.461 0.6524,-0.586 1.1446,-0.383 0.5234,0.219 0.9609,0.566 1.3593,0.965 0.3555,0.351 0.6797,0.734 1.0039,1.086 z m -0.6172,0.613 c -0.2539,-0.391 -0.5429,-0.719 -0.8632,-1.019 -0.3438,-0.329 -0.7032,-0.637 -1.1328,-0.856 -0.0977,-0.055 -0.1563,-0.039 -0.211,0.063 -0.1367,0.265 -0.2148,0.546 -0.2422,0.843 -0.0117,0.141 0.043,0.235 0.1602,0.313 0.3242,0.211 0.6758,0.359 1.043,0.473 0.3984,0.121 0.8007,0.203 1.246,0.183 z m 1.2813,-0.07 c 0.0312,0.019 0.0391,0.027 0.0469,0.027 0.0273,0 0.0508,0 0.082,-0.004 0.5234,-0.035 1.0313,-0.148 1.5195,-0.336 0.3321,-0.129 0.6524,-0.293 0.9766,-0.445 0.0977,-0.047 0.1133,-0.109 0.0508,-0.207 -0.168,-0.266 -0.3828,-0.484 -0.6446,-0.652 -0.1015,-0.067 -0.1953,-0.063 -0.3007,-0.012 -0.5547,0.289 -1.0118,0.691 -1.4024,1.172 -0.1172,0.144 -0.2187,0.304 -0.3281,0.457 z m -0.5859,1.176 c -0.0157,0 -0.0313,0 -0.0469,0 -0.0938,0.25 -0.1992,0.492 -0.2813,0.746 -0.1992,0.613 -0.3398,1.238 -0.3242,1.894 0.0039,0.113 0.0391,0.168 0.1602,0.164 0.3203,-0.011 0.6211,-0.086 0.8984,-0.246 0.0586,-0.035 0.1133,-0.097 0.1289,-0.16 0.0274,-0.09 0.0352,-0.191 0.0274,-0.289 -0.0235,-0.609 -0.1446,-1.195 -0.3868,-1.754 -0.0507,-0.121 -0.1171,-0.238 -0.1757,-0.355"
         style="fill:#ffffff;fill-opacity:1;fill-rule:nonzero;stroke:none"
         transform="matrix(0.66666667,0,0,-0.66666667,0,1122.5197)" />
    </g>
  </g>
</svg>
