<?xml version="1.0" encoding="UTF-8" standalone="no"?>
<!-- Created with Inkscape (http://www.inkscape.org/) -->

<svg
   width="128"
   height="128"
   viewBox="0 0 128 128"
   version="1.1"
   id="svg1"
   inkscape:version="1.4.3 (0d15f75042, 2025-12-25)"
   sodipodi:docname="hot-air-grill.svg"
   xmlns:inkscape="http://www.inkscape.org/namespaces/inkscape"
   xmlns:sodipodi="http://sodipodi.sourceforge.net/DTD/sodipodi-0.dtd"
   xmlns="http://www.w3.org/2000/svg"
   xmlns:svg="http://www.w3.org/2000/svg">
  <sodipodi:namedview
     id="namedview1"
     pagecolor="#ffffff"
     bordercolor="#000000"
     borderopacity="0.25"
     inkscape:showpageshadow="2"
     inkscape:pageopacity="0.0"
     inkscape:pagecheckerboard="0"
     inkscape:deskcolor="#d1d1d1"
     inkscape:document-units="mm"
     inkscape:zoom="0.93895903"
     inkscape:cx="233.76952"
     inkscape:cy="216.19687"
     inkscape:window-width="1908"
     inkscape:window-height="1015"
     inkscape:window-x="20"
     inkscape:window-y="20"
     inkscape:window-maximized="0"
     inkscape:current-layer="layer1" />
  <defs
     id="defs1">
    <clipPath
       clipPathUnits="userSpaceOnUse"
       id="clipPath160">
      <path
         d="m 70.8672,150.20301 h 23.582 v 23.5859 h -23.582 z"
         clip-rule="evenodd"
         id="path160" />
    </clipPath>
  </defs>
  <g
     inkscape:label="Layer 1"
     inkscape:groupmode="layer"
     id="layer1"
     transform="translate(-42.993036,-91.175111)">
    <g
       id="g473"
       transform="matrix(8.141803,0,0,8.1404568,-341.66482,-8103.5006)"
       style="fill:#ffffff">
      <path
         id="path159"
         d="m 82.6484,173.789 c -3.707,0 -7.4179,0 -11.125,0 -0.4296,0 -0.664,-0.234 -0.664,-0.664 0,-7.418 0,-14.832 0,-22.25 0,-0.437 0.2344,-0.672 0.6719,-0.672 7.4179,0 14.8359,0 22.2539,0 0.4492,0 0.6718,0.223 0.6718,0.664 0,7.426 0,14.844 0,22.266 0,0.426 -0.2304,0.656 -0.6523,0.656 -3.7188,0 -7.4375,0 -11.1563,0 z m 10.625,-1.184 c 0,-7.078 0,-14.144 0,-21.222 -7.082,0 -14.1523,0 -21.2187,0 0,7.082 0,14.152 0,21.222 7.0742,0 14.1445,0 21.2187,0"
         style="fill:#ffffff;fill-opacity:1;fill-rule:nonzero;stroke:none"
         transform="matrix(0.66666667,0,0,-0.66666667,0,1122.5197)"
         clip-path="url(#clipPath160)" />
      <path
         id="path161"
         d="m 83.6328,158.742 c 0.1563,0.348 0.3203,0.684 0.457,1.035 0.3672,0.957 0.5665,1.953 0.5743,2.985 0.0039,0.222 -0.0274,0.449 -0.0586,0.672 -0.0547,0.39 -0.2657,0.691 -0.5742,0.921 -0.4766,0.356 -1.0274,0.543 -1.6016,0.653 -0.3594,0.066 -0.7188,0.09 -1.082,0.031 -0.6407,-0.101 -0.9961,-0.461 -1.086,-1.098 -0.0937,-0.64 -0.0312,-1.277 0.0703,-1.906 0.1758,-1.094 0.4844,-2.14 0.9649,-3.14 0.0078,-0.016 0.0078,-0.036 0.0117,-0.055 -0.2813,-0.024 -0.5547,-0.039 -0.8281,-0.074 -1.2188,-0.157 -2.3633,-0.524 -3.4024,-1.196 -0.3672,-0.234 -0.6797,-0.519 -0.789,-0.968 -0.1016,-0.438 -0.0743,-0.872 0.0195,-1.301 0.1289,-0.602 0.3281,-1.176 0.7383,-1.656 0.3633,-0.418 0.7929,-0.536 1.3203,-0.36 0.5547,0.18 1.0312,0.496 1.4883,0.844 0.9531,0.723 1.7773,1.566 2.4609,2.547 0.0274,0.039 0.0547,0.074 0.0859,0.117 0.1836,-0.262 0.3516,-0.52 0.5391,-0.762 0.7188,-0.918 1.5664,-1.691 2.5938,-2.246 0.3632,-0.195 0.7382,-0.344 1.1601,-0.265 0.3906,0.074 0.7305,0.273 1.0391,0.515 0.4922,0.391 0.9062,0.844 1.1836,1.414 0.1133,0.231 0.1797,0.473 0.1758,0.735 -0.0118,0.429 -0.2579,0.722 -0.5782,0.968 -0.5429,0.407 -1.1601,0.676 -1.7929,0.907 -0.9414,0.339 -1.9141,0.578 -2.9141,0.66 -0.0625,0.004 -0.1211,0.015 -0.1758,0.023 z m -1.1445,0.391 c -0.0352,0.055 -0.0547,0.09 -0.0703,0.121 -0.4141,0.797 -0.6758,1.648 -0.8516,2.523 -0.125,0.606 -0.2187,1.215 -0.1758,1.832 0.0196,0.246 0.0508,0.278 0.2969,0.289 0.0195,0.004 0.0391,0.004 0.0547,0 0.4726,-0.011 0.9141,-0.132 1.3437,-0.328 0.2891,-0.129 0.3946,-0.336 0.4024,-0.64 0.0156,-1.16 -0.2305,-2.258 -0.7266,-3.301 -0.0781,-0.164 -0.1758,-0.32 -0.2734,-0.496 z m 0.8203,-1.559 c 0.0742,0 0.125,0.004 0.1758,0 0.9687,-0.054 1.8984,-0.273 2.8086,-0.605 0.5156,-0.192 1.0234,-0.399 1.4765,-0.719 0.1719,-0.125 0.1797,-0.148 0.0743,-0.336 -0.2461,-0.437 -0.5938,-0.781 -0.9961,-1.078 -0.2344,-0.172 -0.4571,-0.188 -0.7149,-0.043 -1.0937,0.602 -1.9765,1.426 -2.6484,2.473 -0.0586,0.093 -0.1094,0.191 -0.1758,0.308 z m -1.7656,0.059 c -0.043,-0.067 -0.0703,-0.113 -0.1016,-0.16 -0.5976,-0.903 -1.3516,-1.66 -2.1953,-2.332 -0.3438,-0.278 -0.7031,-0.536 -1.1133,-0.715 -0.1211,-0.051 -0.1953,-0.031 -0.2695,0.082 -0.2266,0.351 -0.3711,0.742 -0.4219,1.156 -0.0898,0.75 -0.0664,0.723 0.4453,1.024 0.9258,0.542 1.9336,0.843 3,0.941 0.211,0.019 0.4219,0.004 0.6563,0.004"
         style="fill:#ffffff;fill-opacity:1;fill-rule:nonzero;stroke:none"
         transform="matrix(0.66666667,0,0,-0.66666667,0,1122.5197)" />
      <path
         id="path162"
         d="m 85.1836,169.09 c 0.6289,-0.629 1.2578,-1.231 1.8555,-1.863 0.375,-0.395 0.9414,-0.403 1.3281,-0.004 0.8008,0.828 1.625,1.632 2.4414,2.449 0.25,0.25 0.3086,0.605 0.1641,0.922 -0.1407,0.308 -0.4493,0.5 -0.793,0.48 -0.2149,-0.011 -0.3984,-0.097 -0.5508,-0.25 -0.6016,-0.601 -1.207,-1.203 -1.8086,-1.804 -0.0351,-0.036 -0.0547,-0.09 -0.1055,-0.165 -0.3164,0.329 -0.5898,0.618 -0.871,0.903 -0.3438,0.351 -0.6993,0.699 -1.0469,1.047 -0.3633,0.367 -0.8633,0.367 -1.2266,0.004 -0.6015,-0.598 -1.2031,-1.196 -1.8008,-1.789 -0.0351,-0.036 -0.0664,-0.067 -0.1132,-0.106 -0.0352,0.031 -0.0704,0.063 -0.1016,0.094 -0.5899,0.586 -1.1797,1.176 -1.7695,1.762 -0.3829,0.382 -0.9141,0.406 -1.2969,0.007 -0.5781,-0.601 -1.1797,-1.183 -1.7735,-1.773 -0.0312,-0.031 -0.0625,-0.059 -0.1289,-0.117 -0.0312,0.047 -0.0507,0.097 -0.0859,0.133 -0.6055,0.609 -1.2109,1.214 -1.8164,1.82 -0.2539,0.246 -0.6133,0.312 -0.9258,0.168 -0.3125,-0.141 -0.5,-0.457 -0.4805,-0.809 0.0118,-0.215 0.1055,-0.398 0.2579,-0.547 0.8242,-0.828 1.6445,-1.656 2.4765,-2.476 0.3711,-0.367 0.8555,-0.352 1.2305,0.019 0.5898,0.594 1.1836,1.184 1.7734,1.778 0.0391,0.039 0.0586,0.086 0.0899,0.129 0.0195,0.003 0.0429,0.007 0.0664,0.011 0.0273,-0.047 0.0429,-0.097 0.0781,-0.136 0.5938,-0.594 1.1875,-1.184 1.7773,-1.778 0.3868,-0.383 0.8711,-0.386 1.2579,0 0.5937,0.594 1.1836,1.184 1.7773,1.778 0.0391,0.035 0.0742,0.07 0.1211,0.113"
         style="fill:#ffffff;fill-opacity:1;fill-rule:nonzero;stroke:none"
         transform="matrix(0.66666667,0,0,-0.66666667,0,1122.5197)" />
    </g>
  </g>
</svg>
