<?xml version="1.0" encoding="UTF-8" standalone="no"?>
<!-- Created with Inkscape (http://www.inkscape.org/) -->

<svg
   width="128"
   height="128"
   viewBox="0 0 128 128"
   version="1.1"
   id="svg1"
   sodipodi:docname="keep-warm.svg"
   inkscape:version="1.4.3 (0d15f75042, 2025-12-25)"
   xmlns:inkscape="http://www.inkscape.org/namespaces/inkscape"
   xmlns:sodipodi="http://sodipodi.sourceforge.net/DTD/sodipodi-0.dtd"
   xmlns="http://www.w3.org/2000/svg"
   xmlns:svg="http://www.w3.org/2000/svg">
  <sodipodi:namedview
     id="namedview1"
     pagecolor="#ffffff"
     bordercolor="#000000"
     borderopacity="0.25"
     inkscape:showpageshadow="2"
     inkscape:pageopacity="0.0"
     inkscape:pagecheckerboard="0"
     inkscape:deskcolor="#d1d1d1"
     inkscape:document-units="mm"
     inkscape:zoom="0.25272308"
     inkscape:cx="-2019.9975"
     inkscape:cy="-427.34521"
     inkscape:window-width="1908"
     inkscape:window-height="1015"
     inkscape:window-x="20"
     inkscape:window-y="20"
     inkscape:window-maximized="0"
     inkscape:current-layer="layer1" />
  <defs
     id="defs1">
    <clipPath
       clipPathUnits="userSpaceOnUse"
       id="clipPath275">
      <path
         d="m 48.187493,1076.96 h 23.5859 v 23.582 h -23.5859 z"
         clip-rule="evenodd"
         id="path275" />
    </clipPath>
  </defs>
  <g
     inkscape:label="Layer 1"
     inkscape:groupmode="layer"
     id="layer1"
     transform="translate(-48.806472,-85.918872)">
    <g
       id="g479"
       transform="matrix(8.1404592,0,0,8.1424936,-6836.6037,-3080.0973)"
       style="fill:#ffffff">
      <path
         id="path274"
         d="m 48.1875,1088.73 c 0,-3.7 0,-7.4 0,-11.1 0,-0.45 0.2305,-0.68 0.6797,-0.68 7.4101,0 14.8203,0 22.2305,0 0.4492,0 0.6757,0.23 0.6757,0.68 0,7.41 0,14.82 0,22.23 0,0.45 -0.2304,0.68 -0.6757,0.68 -7.4102,0 -14.8204,0 -22.2305,0 -0.4453,0 -0.6797,-0.23 -0.6797,-0.68 0,-3.71 0,-7.42 0,-11.13 z m 22.4023,10.63 c 0,-7.08 0,-14.15 0,-21.22 -7.082,0 -14.1484,0 -21.2148,0 0,7.08 0,14.15 0,21.22 7.0742,0 14.1406,0 21.2148,0"
         style="fill:#ffffff;fill-opacity:1;fill-rule:nonzero;stroke:none"
         transform="matrix(0.66666667,0,0,-0.66666667,813.70077,1122.5197)"
         clip-path="url(#clipPath275)" />
      <path
         id="path276"
         d="m 52.7617,1092.45 c 0.0274,-1.26 0.3867,-2.43 0.9258,-3.55 0.3594,-0.75 0.7656,-1.48 1.1094,-2.24 0.1953,-0.43 0.3515,-0.89 0.457,-1.36 0.1641,-0.71 -0.0117,-1.37 -0.3906,-1.98 -0.3203,-0.52 -0.7188,-0.97 -1.1445,-1.39 -0.2579,-0.27 -0.3633,-0.57 -0.2383,-0.92 0.1836,-0.53 0.875,-0.74 1.2812,-0.36 0.8555,0.81 1.5899,1.72 1.9844,2.85 0.332,0.97 0.2383,1.94 -0.0781,2.89 -0.3242,0.99 -0.8164,1.9 -1.293,2.81 -0.3945,0.76 -0.7109,1.55 -0.8672,2.39 -0.2461,1.37 0.0977,2.57 0.9805,3.63 0.1211,0.15 0.2539,0.29 0.3789,0.43 0.3008,0.33 0.2851,0.85 -0.0391,1.15 -0.3203,0.31 -0.8281,0.31 -1.1445,-0.01 -0.9258,-0.93 -1.5859,-2.01 -1.8164,-3.32 -0.0547,-0.34 -0.0703,-0.68 -0.1055,-1.02"
         style="fill:#ffffff;fill-opacity:1;fill-rule:nonzero;stroke:none"
         transform="matrix(0.66666667,0,0,-0.66666667,813.70077,1122.5197)" />
      <path
         id="path277"
         d="m 57.8828,1092.57 c 0.0078,-1.31 0.332,-2.44 0.836,-3.51 0.371,-0.79 0.789,-1.57 1.1679,-2.36 0.2696,-0.56 0.4844,-1.13 0.5235,-1.76 0.0468,-0.73 -0.2149,-1.35 -0.6446,-1.91 -0.3086,-0.4 -0.6562,-0.79 -1,-1.16 -0.4258,-0.46 -0.2422,-1.2 0.3594,-1.37 0.2969,-0.08 0.5781,-0.03 0.7969,0.19 0.6953,0.7 1.3281,1.45 1.7461,2.36 0.4648,1.01 0.4883,2.04 0.1797,3.09 -0.2696,0.93 -0.6993,1.79 -1.1485,2.63 -0.3867,0.75 -0.7539,1.49 -0.9765,2.31 -0.4727,1.74 -0.0586,3.23 1.1953,4.51 0.4726,0.48 0.2773,1.25 -0.3555,1.41 -0.2852,0.07 -0.5547,0.02 -0.7656,-0.2 -1.0078,-1.01 -1.6953,-2.19 -1.875,-3.63 -0.0274,-0.24 -0.0313,-0.47 -0.0391,-0.6"
         style="fill:#ffffff;fill-opacity:1;fill-rule:nonzero;stroke:none"
         transform="matrix(0.66666667,0,0,-0.66666667,813.70077,1122.5197)" />
      <path
         id="path278"
         d="m 67.1836,1084.66 c -0.0039,0.95 -0.2227,1.71 -0.5547,2.44 -0.3594,0.79 -0.7578,1.55 -1.1367,2.33 -0.3594,0.72 -0.6445,1.47 -0.7734,2.28 -0.2032,1.3 0.1328,2.45 0.957,3.47 0.125,0.15 0.2578,0.29 0.3906,0.43 0.3242,0.35 0.3242,0.86 0,1.18 -0.3242,0.32 -0.8437,0.32 -1.1758,-0.02 -0.9297,-0.95 -1.5898,-2.05 -1.8047,-3.38 -0.1523,-0.93 -0.0625,-1.84 0.1758,-2.74 0.25,-0.95 0.6719,-1.83 1.1328,-2.69 0.3594,-0.68 0.7032,-1.37 0.9571,-2.09 0.3867,-1.1 0.164,-2.09 -0.5547,-2.98 -0.2813,-0.35 -0.586,-0.68 -0.8946,-1.01 -0.3125,-0.34 -0.3242,-0.84 -0.0078,-1.17 0.3086,-0.32 0.8321,-0.33 1.1524,-0.02 0.6679,0.66 1.2656,1.38 1.6836,2.22 0.2929,0.59 0.457,1.22 0.4531,1.75"
         style="fill:#ffffff;fill-opacity:1;fill-rule:nonzero;stroke:none"
         transform="matrix(0.66666667,0,0,-0.66666667,813.70077,1122.5197)" />
    </g>
  </g>
</svg>
