<?xml version="1.0" encoding="UTF-8" standalone="no"?>
<!-- Created with Inkscape (http://www.inkscape.org/) -->

<svg
   width="27.895399mm"
   height="26.458332mm"
   viewBox="0 0 27.895399 26.458332"
   version="1.1"
   id="svg1"
   sodipodi:docname="not-connected-icon.svg"
   inkscape:version="1.4.3 (0d15f75042, 2025-12-25)"
   xmlns:inkscape="http://www.inkscape.org/namespaces/inkscape"
   xmlns:sodipodi="http://sodipodi.sourceforge.net/DTD/sodipodi-0.dtd"
   xmlns="http://www.w3.org/2000/svg"
   xmlns:svg="http://www.w3.org/2000/svg">
  <sodipodi:namedview
     id="namedview1"
     pagecolor="#ffffff"
     bordercolor="#000000"
     borderopacity="0.25"
     inkscape:showpageshadow="2"
     inkscape:pageopacity="0.0"
     inkscape:pagecheckerboard="0"
     inkscape:deskcolor="#d1d1d1"
     inkscape:document-units="mm"
     inkscape:zoom="2.6787968"
     inkscape:cx="2.2398115"
     inkscape:cy="53.568826"
     inkscape:window-width="1920"
     inkscape:window-height="1011"
     inkscape:window-x="0"
     inkscape:window-y="0"
     inkscape:window-maximized="1"
     inkscape:current-layer="layer1" />
  <defs
     id="defs1">
    <clipPath
       clipPathUnits="userSpaceOnUse"
       id="clipPath47">
      <path
         d="m 48.1875,823.457 h 24.8672 v 23.5859 H 48.1875 Z"
         clip-rule="evenodd"
         id="path47" />
    </clipPath>
  </defs>
  <g
     inkscape:label="Layer 1"
     inkscape:groupmode="layer"
     id="layer1"
     transform="translate(-155.04583,-27.25208)">
    <path
       id="path46"
       d="m 72.8516,839.199 c -1.2578,1.258 -2.6719,2.293 -4.1993,3.098 l 3.5586,3.558 c 0.2696,0.274 0.2696,0.711 0,0.985 -0.2734,0.269 -0.7109,0.269 -0.9804,0 l -3.9141,-3.914 c -2.0937,0.879 -4.3594,1.344 -6.6953,1.344 -4.6211,0 -8.9609,-1.801 -12.2305,-5.067 -0.2695,-0.269 -0.2695,-0.711 0,-0.98 0.2735,-0.27 0.711,-0.27 0.9805,0 3.0078,3.004 7,4.66 11.25,4.66 1.9531,0 3.8516,-0.352 5.6289,-1.024 L 62.8906,838.5 c -0.7383,0.137 -1.5,0.211 -2.2695,0.211 -3.2305,0 -6.2734,-1.258 -8.5586,-3.547 -0.2734,-0.269 -0.2734,-0.707 0,-0.98 0.2695,-0.27 0.707,-0.27 0.9805,0 2.0234,2.027 4.7187,3.14 7.5781,3.14 0.3516,0 0.6992,-0.015 1.043,-0.047 L 49.0352,824.641 c -0.2735,-0.274 -0.2735,-0.711 0,-0.981 0.1328,-0.133 0.3125,-0.203 0.4882,-0.203 0.1758,0 0.3555,0.07 0.4922,0.203 l 6.7696,6.77 c 1.0781,0.894 2.4179,1.383 3.8359,1.383 1.6094,0 3.125,-0.629 4.2617,-1.766 0.1367,-0.133 0.3125,-0.203 0.4883,-0.203 0.1797,0 0.3555,0.07 0.4922,0.203 0.2695,0.273 0.2695,0.711 0,0.984 -1.3985,1.399 -3.2578,2.168 -5.2383,2.168 -0.3984,0 -0.7852,-0.031 -1.1562,-0.086 l 3.8671,3.867 c 1.8243,-0.472 3.4961,-1.425 4.8672,-2.792 0.1328,-0.137 0.3125,-0.204 0.4883,-0.204 0.1797,0 0.3555,0.067 0.4922,0.204 0.2695,0.269 0.2695,0.71 0,0.98 -1.3516,1.352 -2.9688,2.344 -4.7305,2.93 l 3.168,3.172 c 1.5586,-0.766 2.9922,-1.786 4.2539,-3.047 0.1328,-0.133 0.3125,-0.203 0.4883,-0.203 0.1797,0 0.3555,0.066 0.4922,0.203 0.2656,0.269 0.2656,0.711 -0.0039,0.976 z M 60.6211,827.621 c -0.3828,0 -0.7266,-0.156 -0.9805,-0.406 -0.25,-0.254 -0.4062,-0.598 -0.4062,-0.985 0,-0.382 0.1562,-0.726 0.4062,-0.976 0.2539,-0.254 0.5977,-0.41 0.9805,-0.41 0.3867,0 0.7305,0.156 0.9844,0.41 0.25,0.25 0.4062,0.594 0.4062,0.976 0,0.387 -0.1562,0.731 -0.4062,0.985 -0.2539,0.25 -0.5977,0.406 -0.9844,0.406"
       style="fill:#ffffff;fill-opacity:1;fill-rule:nonzero;stroke:none"
       transform="matrix(1.1218407,0,0,-1.1218407,100.98604,977.49799)"
       clip-path="url(#clipPath47)" />
  </g>
</svg>
