<?xml version="1.0" encoding="UTF-8" standalone="no"?>
<!-- Created with Inkscape (http://www.inkscape.org/) -->

<svg
   width="128"
   height="128"
   viewBox="0 0 128 128"
   version="1.1"
   id="svg1"
   sodipodi:docname="pizza.svg"
   inkscape:version="1.4.3 (0d15f75042, 2025-12-25)"
   xmlns:inkscape="http://www.inkscape.org/namespaces/inkscape"
   xmlns:sodipodi="http://sodipodi.sourceforge.net/DTD/sodipodi-0.dtd"
   xmlns="http://www.w3.org/2000/svg"
   xmlns:svg="http://www.w3.org/2000/svg">
  <sodipodi:namedview
     id="namedview1"
     pagecolor="#ffffff"
     bordercolor="#000000"
     borderopacity="0.25"
     inkscape:showpageshadow="2"
     inkscape:pageopacity="0.0"
     inkscape:pagecheckerboard="0"
     inkscape:deskcolor="#d1d1d1"
     inkscape:document-units="mm"
     inkscape:zoom="0.93895903"
     inkscape:cx="247.61464"
     inkscape:cy="214.06685"
     inkscape:window-width="1908"
     inkscape:window-height="1015"
     inkscape:window-x="20"
     inkscape:window-y="20"
     inkscape:window-maximized="0"
     inkscape:current-layer="layer1" />
  <defs
     id="defs1">
    <clipPath
       clipPathUnits="userSpaceOnUse"
       id="clipPath224">
      <path
         d="m 48.187493,1294.96 h 23.5859 v 23.582 h -23.5859 z"
         clip-rule="evenodd"
         id="path224" />
    </clipPath>
  </defs>
  <g
     inkscape:label="Layer 1"
     inkscape:groupmode="layer"
     id="layer1"
     transform="translate(-46.210572,-44.571418)">
    <g
       id="g476"
       transform="matrix(8.1404592,0,0,8.141803,-6839.1996,-1937.89)"
       style="fill:#ffffff">
      <path
         id="path223"
         d="m 59.9805,1318.54 c -3.6992,0 -7.4024,0 -11.1016,0 -0.4766,0 -0.6914,-0.21 -0.6914,-0.69 0,-7.4 0,-14.79 0,-22.19 0,-0.47 0.2266,-0.7 0.7031,-0.7 7.3907,0 14.7774,0 22.168,0 0.4844,0 0.7109,0.23 0.7109,0.71 0,7.39 0,14.78 0.0039,22.18 0,0.38 -0.2148,0.7 -0.7031,0.7 -3.6953,-0.01 -7.3945,-0.01 -11.0898,-0.01 z m 10.5976,-22.38 c -7.0742,0 -14.1406,0 -21.207,0 0,7.07 0,14.13 0,21.2 7.0742,0 14.1367,0 21.207,0 0,-7.07 0,-14.13 0,-21.2"
         style="fill:#ffffff;fill-opacity:1;fill-rule:nonzero;stroke:none"
         transform="matrix(0.66666667,0,0,-0.66666667,813.70077,1122.5197)"
         clip-path="url(#clipPath224)" />
      <path
         id="path225"
         d="m 67.7109,1308.16 c 0.0352,4.07 -3.2656,7.73 -7.7304,7.73 -4.4336,0.01 -7.8399,-3.65 -7.7422,-7.92 0.0898,-4.09 3.4609,-7.62 7.8633,-7.56 4.332,0.07 7.6484,3.65 7.6093,7.75 z m -7.7421,6.67 c 3.5742,0.03 6.6328,-2.87 6.6914,-6.57 0.0586,-3.72 -2.9336,-6.78 -6.6758,-6.79 -3.6758,0 -6.6758,2.96 -6.6914,6.66 -0.0157,3.7 2.9883,6.7 6.6758,6.7"
         style="fill:#ffffff;fill-opacity:1;fill-rule:nonzero;stroke:none"
         transform="matrix(0.66666667,0,0,-0.66666667,813.70077,1122.5197)" />
      <path
         id="path226"
         d="m 59.9727,1299 c -2.3438,0 -4.6836,0 -7.0235,0 -0.4414,0 -0.7539,-0.3 -0.7539,-0.71 0.0039,-0.41 0.3203,-0.7 0.7539,-0.7 4.6875,0 9.3789,0 14.0664,0 0.4063,0 0.7032,0.26 0.7422,0.66 0.0352,0.33 -0.2148,0.66 -0.5664,0.73 -0.0625,0.02 -0.1289,0.02 -0.1953,0.02 -2.3398,0 -4.6836,0 -7.0234,0"
         style="fill:#ffffff;fill-opacity:1;fill-rule:nonzero;stroke:none"
         transform="matrix(0.66666667,0,0,-0.66666667,813.70077,1122.5197)" />
      <path
         id="path227"
         d="m 59.0703,1308.77 c -0.7226,-0.02 -1.3984,-0.18 -2.0508,-0.43 -0.3984,-0.16 -0.7812,-0.35 -1.1172,-0.62 -0.2734,-0.22 -0.4062,-0.5 -0.4179,-0.84 -0.0274,-0.63 0.1289,-1.22 0.4726,-1.75 0.2813,-0.44 0.6993,-0.57 1.1875,-0.39 0.5235,0.2 0.961,0.53 1.3789,0.89 0.5039,0.44 0.9571,0.93 1.3477,1.47 0.0156,0.02 0.0312,0.04 0.0547,0.07 0.0547,-0.08 0.1015,-0.15 0.1484,-0.22 0.5625,-0.8 1.2617,-1.45 2.1328,-1.91 0.4805,-0.25 0.9375,-0.22 1.3789,0.09 0.4649,0.31 0.8438,0.7 1.0782,1.21 0.2031,0.44 0.125,0.8 -0.2344,1.12 -0.4297,0.39 -0.9492,0.61 -1.4805,0.79 -0.6094,0.21 -1.2344,0.36 -1.8789,0.43 -0.0508,0.01 -0.1055,0.02 -0.168,0.03 0.0821,0.18 0.1641,0.36 0.2383,0.53 0.2852,0.69 0.4414,1.42 0.4649,2.17 0.0078,0.22 -0.0196,0.45 -0.0586,0.67 -0.0508,0.3 -0.2344,0.52 -0.4805,0.68 -0.5742,0.37 -1.207,0.53 -1.8789,0.45 -0.5195,-0.05 -0.8242,-0.42 -0.8516,-0.99 -0.0507,-1.07 0.1954,-2.08 0.5782,-3.07 0.0468,-0.12 0.0976,-0.24 0.1562,-0.38 z m 0.1563,-0.94 c -0.0391,-0.06 -0.0586,-0.1 -0.086,-0.14 -0.3359,-0.38 -0.6601,-0.78 -1.0156,-1.14 -0.3477,-0.35 -0.7383,-0.66 -1.1797,-0.89 -0.125,-0.06 -0.2031,-0.04 -0.2695,0.08 -0.1563,0.31 -0.25,0.65 -0.2695,1 -0.0079,0.13 0.0351,0.24 0.1562,0.3 0.2539,0.14 0.5039,0.29 0.7734,0.41 0.5938,0.25 1.211,0.38 1.8907,0.38 z m 1.4492,-0.06 c 0.0898,0 0.1601,0 0.2305,0 0.5625,-0.06 1.121,-0.18 1.6523,-0.38 0.3906,-0.15 0.7656,-0.35 1.1484,-0.53 0.1133,-0.05 0.1211,-0.13 0.0547,-0.23 -0.1914,-0.3 -0.4336,-0.55 -0.7265,-0.74 -0.1172,-0.09 -0.2383,-0.11 -0.3633,-0.03 -0.2774,0.18 -0.5625,0.35 -0.8164,0.55 -0.4727,0.37 -0.8711,0.81 -1.1797,1.36 z m -0.6406,1.29 c -0.0157,0.01 -0.0352,0.01 -0.0508,0.02 -0.0156,0.02 -0.0274,0.05 -0.043,0.07 -0.2695,0.55 -0.4414,1.14 -0.5586,1.73 -0.082,0.42 -0.1484,0.85 -0.1172,1.28 0.0078,0.1 0.0469,0.13 0.1485,0.13 0.375,0.01 0.7226,-0.09 1.0547,-0.26 0.125,-0.06 0.1796,-0.16 0.1875,-0.3 0.0273,-0.6 -0.0704,-1.19 -0.2579,-1.76 -0.1054,-0.31 -0.2421,-0.6 -0.3632,-0.91"
         style="fill:#ffffff;fill-opacity:1;fill-rule:nonzero;stroke:none"
         transform="matrix(0.66666667,0,0,-0.66666667,813.70077,1122.5197)" />
    </g>
  </g>
</svg>
