<?xml version="1.0" encoding="UTF-8" standalone="no"?>
<!-- Created with Inkscape (http://www.inkscape.org/) -->

<svg
   width="128"
   height="128"
   viewBox="0 0 128 128"
   version="1.1"
   id="svg1"
   sodipodi:docname="preheat-ovenware.svg"
   inkscape:version="1.4.3 (0d15f75042, 2025-12-25)"
   xmlns:inkscape="http://www.inkscape.org/namespaces/inkscape"
   xmlns:sodipodi="http://sodipodi.sourceforge.net/DTD/sodipodi-0.dtd"
   xmlns="http://www.w3.org/2000/svg"
   xmlns:svg="http://www.w3.org/2000/svg">
  <sodipodi:namedview
     id="namedview1"
     pagecolor="#ffffff"
     bordercolor="#000000"
     borderopacity="0.25"
     inkscape:showpageshadow="2"
     inkscape:pageopacity="0.0"
     inkscape:pagecheckerboard="0"
     inkscape:deskcolor="#d1d1d1"
     inkscape:document-units="mm"
     inkscape:zoom="0.67718255"
     inkscape:cx="-0.73835334"
     inkscape:cy="445.96542"
     inkscape:window-width="1908"
     inkscape:window-height="1015"
     inkscape:window-x="20"
     inkscape:window-y="20"
     inkscape:window-maximized="0"
     inkscape:current-layer="layer1" />
  <defs
     id="defs1">
    <clipPath
       clipPathUnits="userSpaceOnUse"
       id="clipPath291">
      <path
         d="m 48.187493,1046.7 h 23.5859 v 23.582 h -23.5859 z"
         clip-rule="evenodd"
         id="path291" />
    </clipPath>
  </defs>
  <g
     inkscape:label="Layer 1"
     inkscape:groupmode="layer"
     id="layer1"
     transform="translate(-57.612616,-112.4184)">
    <g
       id="g480"
       transform="matrix(8.1458154,0,0,8.141803,-6832.3701,-3217.5657)"
       style="fill:#ffffff">
      <path
         id="path290"
         d="m 48.1992,1058.5 c 0,-3.71 0.0039,-7.42 -0.0039,-11.13 -0.0039,-0.41 0.2656,-0.67 0.6719,-0.67 7.4101,0.01 14.8164,0.01 22.2226,0 0.4141,0 0.6797,0.27 0.6758,0.67 -0.0039,7.42 -0.0078,14.83 0,22.25 0,0.44 -0.3203,0.67 -0.6601,0.67 -7.4141,-0.01 -14.8321,-0.01 -22.25,0 -0.3438,0 -0.6641,-0.24 -0.6602,-0.67 0.0078,-3.71 0.0039,-7.42 0.0039,-11.12 z m 1.1719,-10.61 c 0,7.08 0,14.14 0,21.2 7.0781,0 14.1484,0 21.2187,0 0,-7.07 0,-14.13 0,-21.2 -7.0742,0 -14.1406,0 -21.2187,0"
         style="fill:#ffffff;fill-opacity:1;fill-rule:nonzero;stroke:none"
         transform="matrix(0.66666667,0,0,-0.66666667,813.70077,1122.5197)"
         clip-path="url(#clipPath291)" />
      <path
         id="path292"
         d="m 59.9805,1053.64 c 1.3711,0 2.7422,0.01 4.1093,0 0.6329,-0.01 1.1915,0.16 1.6954,0.54 0.6953,0.53 1.4101,1.03 2.1093,1.55 0.2735,0.2 0.3711,0.49 0.3008,0.82 -0.0664,0.33 -0.2656,0.54 -0.5859,0.63 -0.2656,0.07 -0.5117,0.01 -0.7305,-0.15 -0.7266,-0.53 -1.4492,-1.07 -2.1836,-1.59 -0.1172,-0.08 -0.2851,-0.14 -0.4297,-0.14 -2.8554,-0.01 -5.707,0 -8.5625,-0.01 -0.1718,0 -0.3203,0.06 -0.457,0.16 -0.7188,0.53 -1.4375,1.05 -2.1563,1.57 -0.5468,0.4 -1.2382,0.12 -1.3359,-0.54 -0.0469,-0.32 0.0781,-0.58 0.3359,-0.77 0.7149,-0.52 1.4375,-1.04 2.1524,-1.57 0.3242,-0.24 0.6758,-0.41 1.0742,-0.47 0.1484,-0.02 0.3008,-0.03 0.4492,-0.03 1.4063,0 2.8125,0 4.2149,0"
         style="fill:#ffffff;fill-opacity:1;fill-rule:nonzero;stroke:none"
         transform="matrix(0.66666667,0,0,-0.66666667,813.70077,1122.5197)" />
      <path
         id="path293"
         d="m 59.9844,1049.66 c 1.4297,0 2.8633,0 4.2969,0 0.5156,0 0.9765,0.15 1.3945,0.45 0.7305,0.54 1.4609,1.07 2.1914,1.6 0.2812,0.21 0.4023,0.49 0.332,0.84 -0.0703,0.35 -0.2851,0.56 -0.6211,0.64 -0.2617,0.06 -0.5,-0.01 -0.7187,-0.17 -0.6992,-0.51 -1.4063,-1.02 -2.1055,-1.54 -0.1719,-0.12 -0.3555,-0.18 -0.5664,-0.18 -2.8008,0 -5.6055,0 -8.4102,0 -0.2187,0 -0.4023,0.06 -0.5742,0.19 -0.707,0.52 -1.414,1.04 -2.1211,1.55 -0.5468,0.4 -1.2656,0.09 -1.3359,-0.58 -0.0313,-0.29 0.082,-0.54 0.3164,-0.72 0.7734,-0.57 1.5508,-1.14 2.332,-1.7 0.3711,-0.26 0.8008,-0.38 1.2618,-0.38 1.4414,0 2.8828,0 4.3281,0"
         style="fill:#ffffff;fill-opacity:1;fill-rule:nonzero;stroke:none"
         transform="matrix(0.66666667,0,0,-0.66666667,813.70077,1122.5197)" />
      <path
         id="path294"
         d="m 58.7422,1064.55 c 0.0117,-0.85 0.2734,-1.63 0.6172,-2.39 0.2226,-0.48 0.4297,-0.98 0.6015,-1.49 0.1719,-0.5 0.0625,-0.99 -0.2265,-1.42 -0.1446,-0.22 -0.3086,-0.43 -0.4805,-0.63 -0.2344,-0.28 -0.2266,-0.65 0.0234,-0.87 0.2618,-0.22 0.6368,-0.19 0.8633,0.1 0.2578,0.33 0.5157,0.66 0.7227,1.02 0.457,0.79 0.4492,1.63 0.1289,2.47 -0.2109,0.55 -0.4649,1.08 -0.6992,1.62 -0.1992,0.48 -0.3438,0.96 -0.3672,1.47 -0.0274,0.7 0.207,1.3 0.6601,1.82 0.1563,0.18 0.2227,0.38 0.1524,0.61 -0.125,0.42 -0.6641,0.56 -0.9649,0.24 -0.5507,-0.59 -0.9023,-1.28 -0.9961,-2.09 -0.0156,-0.15 -0.0234,-0.31 -0.0351,-0.46"
         style="fill:#ffffff;fill-opacity:1;fill-rule:nonzero;stroke:none"
         transform="matrix(0.66666667,0,0,-0.66666667,813.70077,1122.5197)" />
      <path
         id="path295"
         d="m 54.9727,1064.54 c 0.0117,-0.85 0.2773,-1.63 0.625,-2.4 0.2109,-0.45 0.4062,-0.92 0.5742,-1.39 0.1953,-0.54 0.0937,-1.06 -0.2266,-1.53 -0.1523,-0.22 -0.332,-0.43 -0.5,-0.65 -0.2695,-0.34 -0.125,-0.82 0.2891,-0.94 0.2031,-0.06 0.4062,-0.02 0.5508,0.13 0.5312,0.57 0.9726,1.19 1.1211,1.97 0.0937,0.52 0.0312,1.01 -0.1485,1.49 -0.1953,0.53 -0.4297,1.04 -0.6523,1.56 -0.1992,0.46 -0.3672,0.92 -0.4297,1.42 -0.0977,0.78 0.1289,1.45 0.6328,2.04 0.1484,0.17 0.2344,0.36 0.168,0.6 -0.0625,0.21 -0.1953,0.35 -0.4063,0.41 -0.2187,0.06 -0.4297,0.01 -0.582,-0.16 -0.5977,-0.66 -0.9649,-1.43 -1.0039,-2.34 0,-0.07 -0.0078,-0.14 -0.0117,-0.21"
         style="fill:#ffffff;fill-opacity:1;fill-rule:nonzero;stroke:none"
         transform="matrix(0.66666667,0,0,-0.66666667,813.70077,1122.5197)" />
      <path
         id="path296"
         d="m 62.5234,1064.54 c 0.0118,-0.77 0.2344,-1.5 0.543,-2.2 0.207,-0.47 0.4219,-0.95 0.6133,-1.43 0.2656,-0.67 0.1445,-1.3 -0.2969,-1.87 -0.1172,-0.15 -0.2344,-0.29 -0.3555,-0.43 -0.2304,-0.27 -0.2148,-0.64 0.0391,-0.86 0.25,-0.21 0.6094,-0.18 0.8438,0.08 0.3476,0.39 0.6562,0.81 0.8671,1.3 0.3047,0.69 0.2852,1.4 0.0313,2.1 -0.1992,0.54 -0.4453,1.07 -0.6719,1.6 -0.1953,0.45 -0.3554,0.91 -0.4101,1.4 -0.0899,0.78 0.1484,1.45 0.6523,2.03 0.1016,0.12 0.1719,0.26 0.1719,0.42 0,0.25 -0.1328,0.45 -0.3555,0.54 -0.2148,0.1 -0.4805,0.05 -0.6406,-0.12 -0.5274,-0.58 -0.8789,-1.24 -0.9844,-2.02 -0.0273,-0.18 -0.0312,-0.36 -0.0469,-0.54"
         style="fill:#ffffff;fill-opacity:1;fill-rule:nonzero;stroke:none"
         transform="matrix(0.66666667,0,0,-0.66666667,813.70077,1122.5197)" />
    </g>
  </g>
</svg>
