<?xml version="1.0" encoding="UTF-8" standalone="no"?>
<!-- Created with Inkscape (http://www.inkscape.org/) -->

<svg
   width="33.866669mm"
   height="33.866665mm"
   viewBox="0 0 33.866669 33.866665"
   version="1.1"
   id="svg1"
   inkscape:version="1.4.3 (0d15f75042, 2025-12-25)"
   sodipodi:docname="sabbath.svg"
   xmlns:inkscape="http://www.inkscape.org/namespaces/inkscape"
   xmlns:sodipodi="http://sodipodi.sourceforge.net/DTD/sodipodi-0.dtd"
   xmlns="http://www.w3.org/2000/svg"
   xmlns:svg="http://www.w3.org/2000/svg">
  <sodipodi:namedview
     id="namedview1"
     pagecolor="#ffffff"
     bordercolor="#000000"
     borderopacity="0.25"
     inkscape:showpageshadow="2"
     inkscape:pageopacity="0.0"
     inkscape:pagecheckerboard="0"
     inkscape:deskcolor="#d1d1d1"
     inkscape:document-units="mm"
     inkscape:zoom="0.70644641"
     inkscape:cx="63.699099"
     inkscape:cy="64.406867"
     inkscape:window-width="1920"
     inkscape:window-height="1011"
     inkscape:window-x="0"
     inkscape:window-y="0"
     inkscape:window-maximized="1"
     inkscape:current-layer="layer1" />
  <defs
     id="defs1">
    <clipPath
       clipPathUnits="userSpaceOnUse"
       id="clipPath3115">
      <path
         d="m 238.90672,1080.98 h 17.0078 v 17.0078 h -17.0078 z"
         clip-rule="evenodd"
         id="path3115" />
    </clipPath>
  </defs>
  <g
     inkscape:label="Layer 1"
     inkscape:groupmode="layer"
     id="layer1"
     transform="translate(-87.841667,-131.49796)">
    <path
       id="path3114"
       d="m 242.297,1095.43 h 10.246 c 0.328,0 0.523,-0.2 0.586,-0.6 0,-0.35 -0.227,-0.56 -0.676,-0.6 h -10.066 c -0.297,0 -0.504,0.12 -0.617,0.37 -0.04,0.13 -0.055,0.21 -0.055,0.23 0.066,0.4 0.258,0.6 0.582,0.6 z m 0.019,-10.7 h 10.211 c 0.403,-0.07 0.602,-0.27 0.602,-0.6 0,-0.27 -0.141,-0.46 -0.422,-0.57 -0.047,-0.02 -0.113,-0.04 -0.199,-0.04 h -10.176 c -0.41,0.07 -0.617,0.27 -0.617,0.61 0.066,0.4 0.265,0.6 0.601,0.6 z m 5.11,8.64 c 1.148,0 2.14,-0.47 2.988,-1.41 0.586,-0.76 0.883,-1.55 0.883,-2.35 v -0.27 c 0,-0.91 -0.371,-1.78 -1.113,-2.59 -0.809,-0.77 -1.719,-1.15 -2.743,-1.15 h -0.043 c -1.257,0 -2.304,0.55 -3.144,1.65 -0.473,0.68 -0.711,1.41 -0.711,2.18 v 0.11 c 0,1.24 0.559,2.29 1.68,3.14 0.703,0.46 1.437,0.69 2.203,0.69 z m -3.188,-3.85 v -0.09 c 0,-1.09 0.508,-1.98 1.528,-2.68 0.523,-0.3 1.074,-0.46 1.66,-0.46 1.183,0 2.125,0.57 2.824,1.7 0.234,0.5 0.355,0.97 0.355,1.39 v 0.21 c 0,0.79 -0.324,1.51 -0.968,2.19 -0.664,0.6 -1.403,0.9 -2.211,0.9 -1.094,0 -2,-0.5 -2.715,-1.5 -0.316,-0.55 -0.473,-1.1 -0.473,-1.66 z m 3.16,2.46 h 0.047 c 0.223,0 0.348,-0.16 0.371,-0.47 v -1.64 h 1.321 c 0.301,-0.02 0.449,-0.15 0.449,-0.37 v -0.03 c -0.043,-0.25 -0.164,-0.37 -0.356,-0.37 h -1.832 c -0.238,0.05 -0.355,0.17 -0.355,0.35 v 2.17 c 0.047,0.24 0.168,0.36 0.355,0.36 z m 0.032,-11 c 2.675,0 5.351,0.01 8.027,0 0.285,0 0.469,0.22 0.469,0.47 -0.004,5.36 -0.004,10.72 -0.004,16.07 0,0.3 -0.176,0.47 -0.473,0.47 -5.351,0 -10.707,0 -16.058,0 -0.301,0 -0.473,-0.17 -0.473,-0.47 0,-5.36 0.004,-10.72 0,-16.07 0,-0.27 0.207,-0.47 0.469,-0.47 2.679,0.01 5.363,0 8.043,0 z m -7.66,16.15 c 5.105,0 10.203,0 15.296,0 0,-5.1 0,-10.2 0,-15.29 -5.105,0 -10.199,0 -15.296,0 0,5.1 0,10.19 0,15.29"
       style="fill:#ffffff;fill-opacity:1;fill-rule:nonzero;stroke:none"
       transform="matrix(1.9925648,0,0,-1.9912432,-388.21793,2317.8587)"
       clip-path="url(#clipPath3115)" />
  </g>
</svg>
