<?xml version="1.0" encoding="UTF-8" standalone="no"?>
<!-- Created with Inkscape (http://www.inkscape.org/) -->

<svg
   width="128"
   height="128"
   viewBox="0 0 128 128"
   version="1.1"
   id="svg1"
   sodipodi:docname="slow-cook.svg"
   inkscape:version="1.4.3 (0d15f75042, 2025-12-25)"
   xmlns:inkscape="http://www.inkscape.org/namespaces/inkscape"
   xmlns:sodipodi="http://sodipodi.sourceforge.net/DTD/sodipodi-0.dtd"
   xmlns="http://www.w3.org/2000/svg"
   xmlns:svg="http://www.w3.org/2000/svg">
  <sodipodi:namedview
     id="namedview1"
     pagecolor="#ffffff"
     bordercolor="#000000"
     borderopacity="0.25"
     inkscape:showpageshadow="2"
     inkscape:pageopacity="0.0"
     inkscape:pagecheckerboard="0"
     inkscape:deskcolor="#d1d1d1"
     inkscape:document-units="mm"
     inkscape:zoom="0.93895903"
     inkscape:cx="94.253313"
     inkscape:cy="208.7418"
     inkscape:window-width="1908"
     inkscape:window-height="1015"
     inkscape:window-x="20"
     inkscape:window-y="20"
     inkscape:window-maximized="0"
     inkscape:current-layer="layer1" />
  <defs
     id="defs1">
    <clipPath
       clipPathUnits="userSpaceOnUse"
       id="clipPath240">
      <path
         d="m 48.187493,1222.29 h 23.5859 v 23.5859 h -23.5859 z"
         clip-rule="evenodd"
         id="path240" />
    </clipPath>
  </defs>
  <g
     inkscape:label="Layer 1"
     inkscape:groupmode="layer"
     id="layer1"
     transform="translate(-40.504572,-43.539463)">
    <g
       id="g477"
       transform="matrix(8.1404592,0,0,8.1404568,-6844.9056,-2332.951)"
       style="fill:#ffffff">
      <path
         id="path239"
         d="m 59.9805,1245.88 c -3.711,0 -7.4219,-0.01 -11.1328,0 -0.4141,0 -0.6602,-0.31 -0.6602,-0.65 0.0078,-7.43 0.0078,-14.86 0.0078,-22.28 0,-0.42 0.2305,-0.66 0.6563,-0.66 7.4218,0 14.8437,0 22.2656,0 0.418,0 0.6562,0.24 0.6562,0.66 0,7.42 0,14.84 0,22.26 0,0.44 -0.2226,0.67 -0.6601,0.67 -3.711,0 -7.4219,0 -11.1328,0 z m 10.6133,-1.18 c 0,-7.09 0,-14.15 0,-21.22 -7.0782,0 -14.1446,0 -21.2149,0 0,7.07 0,14.15 0,21.22 7.0742,0 14.1367,0 21.2149,0"
         style="fill:#ffffff;fill-opacity:1;fill-rule:nonzero;stroke:none"
         transform="matrix(0.66666667,0,0,-0.66666667,813.70077,1122.5197)"
         clip-path="url(#clipPath240)" />
      <path
         id="path241"
         d="m 67.4102,1242.23 c -0.2774,0 -0.5547,0.01 -0.8321,0 -0.4414,-0.01 -0.7773,-0.31 -0.8242,-0.74 -0.043,-0.39 0.2109,-0.77 0.6016,-0.87 0.0781,-0.03 0.164,-0.03 0.2461,-0.03 0.5429,-0.01 1.0859,-0.01 1.6289,0 0.3554,0 0.6211,0.15 0.7695,0.48 0.1367,0.3 0.0977,0.59 -0.1094,0.86 -0.164,0.21 -0.3906,0.3 -0.6562,0.3 -0.2735,0 -0.5469,0 -0.8242,0"
         style="fill:#ffffff;fill-opacity:1;fill-rule:nonzero;stroke:none"
         transform="matrix(0.66666667,0,0,-0.66666667,813.70077,1122.5197)" />
      <path
         id="path242"
         d="m 52.5391,1242.23 c -0.2774,0 -0.5547,0.01 -0.836,0 -0.4101,-0.01 -0.7539,-0.31 -0.8047,-0.69 -0.0546,-0.43 0.1797,-0.8 0.586,-0.92 0.0781,-0.02 0.164,-0.03 0.2461,-0.03 0.5468,-0.01 1.0976,-0.01 1.6445,0 0.4023,0 0.7266,0.25 0.8125,0.61 0.0859,0.38 -0.0664,0.76 -0.3984,0.93 -0.1289,0.06 -0.2852,0.09 -0.4258,0.1 -0.2735,0.02 -0.5469,0 -0.8242,0"
         style="fill:#ffffff;fill-opacity:1;fill-rule:nonzero;stroke:none"
         transform="matrix(0.66666667,0,0,-0.66666667,813.70077,1122.5197)" />
      <path
         id="path243"
         d="m 62.4531,1242.23 c -0.2773,0 -0.5586,0.01 -0.8359,0 -0.4492,-0.01 -0.7617,-0.31 -0.8164,-0.77 -0.043,-0.37 0.2265,-0.74 0.6055,-0.84 0.0664,-0.02 0.1367,-0.03 0.207,-0.03 0.5664,0 1.1328,-0.01 1.6992,0 0.3555,0 0.6523,0.21 0.7578,0.53 0.1133,0.33 0.0508,0.63 -0.2031,0.88 -0.1602,0.16 -0.3633,0.23 -0.5938,0.23 -0.2734,0 -0.5468,0 -0.8203,0"
         style="fill:#ffffff;fill-opacity:1;fill-rule:nonzero;stroke:none"
         transform="matrix(0.66666667,0,0,-0.66666667,813.70077,1122.5197)" />
      <path
         id="path244"
         d="m 57.5039,1242.23 c -0.2773,0 -0.5547,0.01 -0.832,0 -0.4258,-0.01 -0.7656,-0.3 -0.8164,-0.69 -0.0547,-0.43 0.1797,-0.81 0.5898,-0.92 0.0781,-0.03 0.1641,-0.03 0.2461,-0.03 0.543,-0.01 1.0859,-0.01 1.6289,0 0.3633,0 0.6367,0.16 0.7774,0.5 0.1367,0.32 0.082,0.62 -0.1485,0.88 -0.164,0.18 -0.3789,0.26 -0.6211,0.26 -0.2734,0 -0.5468,0 -0.8242,0"
         style="fill:#ffffff;fill-opacity:1;fill-rule:nonzero;stroke:none"
         transform="matrix(0.66666667,0,0,-0.66666667,813.70077,1122.5197)" />
      <path
         id="path245"
         d="m 57.5039,1227.59 c -0.2812,0 -0.5664,0 -0.8476,0 -0.4532,-0.01 -0.8086,-0.36 -0.8125,-0.82 -0.004,-0.45 0.3515,-0.82 0.8046,-0.83 0.5704,0 1.1407,0 1.711,0 0.4453,0.01 0.8164,0.38 0.8086,0.83 -0.0039,0.45 -0.3633,0.81 -0.8125,0.82 -0.2852,0 -0.5664,0 -0.8516,0"
         style="fill:#ffffff;fill-opacity:1;fill-rule:nonzero;stroke:none"
         transform="matrix(0.66666667,0,0,-0.66666667,813.70077,1122.5197)" />
      <path
         id="path246"
         d="m 62.4648,1227.59 c -0.2812,0 -0.5664,0 -0.8476,0 -0.4492,0 -0.8125,-0.36 -0.8242,-0.82 -0.0117,-0.43 0.3633,-0.82 0.8047,-0.82 0.5781,-0.01 1.1523,-0.01 1.7304,0 0.4414,0 0.7969,0.37 0.7969,0.82 0,0.45 -0.3633,0.81 -0.8086,0.82 -0.2851,0 -0.5664,0 -0.8516,0"
         style="fill:#ffffff;fill-opacity:1;fill-rule:nonzero;stroke:none"
         transform="matrix(0.66666667,0,0,-0.66666667,813.70077,1122.5197)" />
      <path
         id="path247"
         d="m 67.4219,1227.59 c -0.2852,0 -0.5664,0 -0.8516,0 -0.4531,0 -0.8125,-0.37 -0.8164,-0.82 -0.0039,-0.45 0.3555,-0.82 0.8125,-0.83 0.5664,0 1.1328,0 1.6992,0 0.461,0.01 0.8125,0.38 0.8086,0.84 -0.0039,0.45 -0.3594,0.81 -0.8164,0.81 -0.2812,0 -0.5586,0 -0.8359,0"
         style="fill:#ffffff;fill-opacity:1;fill-rule:nonzero;stroke:none"
         transform="matrix(0.66666667,0,0,-0.66666667,813.70077,1122.5197)" />
      <path
         id="path248"
         d="m 52.543,1227.59 c -0.2774,0 -0.5547,0 -0.836,0 -0.457,0 -0.8125,-0.36 -0.8125,-0.81 -0.0039,-0.47 0.3438,-0.83 0.8047,-0.84 0.5664,0 1.1328,0 1.6992,0 0.4571,0.01 0.8164,0.38 0.8164,0.83 -0.0078,0.45 -0.3671,0.81 -0.8203,0.82 -0.2851,0 -0.5664,0 -0.8515,0"
         style="fill:#ffffff;fill-opacity:1;fill-rule:nonzero;stroke:none"
         transform="matrix(0.66666667,0,0,-0.66666667,813.70077,1122.5197)" />
    </g>
  </g>
</svg>
