<?xml version="1.0" encoding="UTF-8" standalone="no"?>
<!-- Created with Inkscape (http://www.inkscape.org/) -->

<svg
   width="128"
   height="128"
   viewBox="0 0 128 128"
   version="1.1"
   id="svg1"
   sodipodi:docname="hot-air-eco.svg"
   inkscape:version="1.4.3 (0d15f75042, 2025-12-25)"
   xmlns:inkscape="http://www.inkscape.org/namespaces/inkscape"
   xmlns:sodipodi="http://sodipodi.sourceforge.net/DTD/sodipodi-0.dtd"
   xmlns="http://www.w3.org/2000/svg"
   xmlns:svg="http://www.w3.org/2000/svg">
  <sodipodi:namedview
     id="namedview1"
     pagecolor="#ffffff"
     bordercolor="#000000"
     borderopacity="0.25"
     inkscape:showpageshadow="2"
     inkscape:pageopacity="0.0"
     inkscape:pagecheckerboard="0"
     inkscape:deskcolor="#d1d1d1"
     inkscape:document-units="mm"
     inkscape:zoom="0.93895903"
     inkscape:cx="60.173019"
     inkscape:cy="101.17587"
     inkscape:window-width="1908"
     inkscape:window-height="1015"
     inkscape:window-x="20"
     inkscape:window-y="20"
     inkscape:window-maximized="0"
     inkscape:current-layer="layer1" />
  <defs
     id="defs1">
    <clipPath
       clipPathUnits="userSpaceOnUse"
       id="clipPath142">
      <path
         d="m 70.8672,266.87501 h 23.582 v 23.582 h -23.582 z"
         clip-rule="evenodd"
         id="path142" />
    </clipPath>
  </defs>
  <g
     inkscape:label="Layer 1"
     inkscape:groupmode="layer"
     id="layer1"
     transform="translate(-41.807726,-38.386855)">
    <g
       id="g472"
       transform="matrix(8.141803,0,0,8.1418065,-342.85013,-7524.3882)"
       style="fill:#ffffff">
      <path
         id="path141"
         d="m 70.8672,278.66 c 0,-3.695 0,-7.387 0,-11.082 0,-0.484 0.2226,-0.707 0.707,-0.707 7.3946,0 14.7852,0 22.1797,0 0.4766,0 0.6953,0.223 0.6953,0.699 0,7.399 0,14.793 0,22.188 0,0.48 -0.2187,0.699 -0.6953,0.699 -7.3945,0 -14.7851,0 -22.1797,0 -0.4844,0 -0.707,-0.223 -0.707,-0.707 0,-3.695 0,-7.395 0,-11.09 z m 1.1797,10.613 c 7.0742,0 14.1406,0 21.2226,0 0,-0.058 0.0039,-0.109 0.0039,-0.16 0,-6.968 0,-13.933 0.0039,-20.898 0,-0.133 -0.0351,-0.168 -0.1679,-0.168 -6.9688,0 -13.9375,0 -20.9063,0 -0.0508,0 -0.1015,0.008 -0.1562,0.008 0,7.082 0,14.144 0,21.218"
         style="fill:#ffffff;fill-opacity:1;fill-rule:nonzero;stroke:none"
         transform="matrix(0.66666667,0,0,-0.66666667,0,1122.5197)"
         clip-path="url(#clipPath142)" />
      <path
         id="path143"
         d="m 85.9141,275.129 c -0.1563,0.316 -0.3125,0.633 -0.4766,0.965 -0.0469,-0.031 -0.0898,-0.055 -0.1328,-0.082 -0.6992,-0.453 -1.4492,-0.727 -2.2969,-0.707 -1.164,0.019 -2.0117,0.629 -2.3476,1.742 -0.1094,0.367 -0.1602,0.754 -0.2344,1.129 -0.0078,0.047 0,0.094 0,0.156 1.9336,0 3.8594,0 5.8125,0 -0.0156,0.289 -0.0195,0.566 -0.0391,0.84 -0.0508,0.648 -0.1445,1.293 -0.3789,1.91 -0.4297,1.133 -1.25,1.77 -2.4531,1.922 -0.7305,0.09 -1.4453,0.047 -2.1289,-0.25 -0.957,-0.422 -1.5508,-1.176 -1.875,-2.149 -0.25,-0.746 -0.3086,-1.515 -0.2735,-2.296 0.0313,-0.637 0.1407,-1.258 0.4024,-1.844 0.5391,-1.192 1.4609,-1.895 2.7539,-2.106 1.2617,-0.199 2.4414,0.024 3.543,0.676 0.0312,0.02 0.0625,0.039 0.0976,0.059 0.0039,0.008 0.0117,0.015 0.0274,0.035 z m -5.5039,4.219 c 0.0664,0.347 0.0937,0.683 0.1914,0.996 0.2734,0.89 0.8086,1.535 1.789,1.664 0.75,0.094 1.4297,-0.067 1.918,-0.695 0.4453,-0.575 0.5625,-1.254 0.5781,-1.965 -1.4844,0 -2.9531,0 -4.4765,0"
         style="fill:#ffffff;fill-opacity:1;fill-rule:nonzero;stroke:none"
         transform="matrix(0.66666667,0,0,-0.66666667,0,1122.5197)" />
      <path
         id="path144"
         d="m 82.6484,272.047 c -2.3437,0 -4.6875,0 -7.0312,-0.004 -0.3555,0 -0.6289,-0.156 -0.7734,-0.488 -0.1407,-0.321 -0.0938,-0.625 0.1406,-0.891 0.1758,-0.203 0.414,-0.273 0.6758,-0.273 2.0039,0 4.0039,0 6.0078,0 2.6679,0 5.3359,0 8.0039,0 0.4726,0 0.8047,0.261 0.8828,0.687 0.0937,0.516 -0.2969,0.965 -0.8438,0.965 -1.7461,0.004 -3.4961,0 -5.2461,0 -0.6054,0.004 -1.2109,0.004 -1.8164,0.004"
         style="fill:#ffffff;fill-opacity:1;fill-rule:nonzero;stroke:none"
         transform="matrix(0.66666667,0,0,-0.66666667,0,1122.5197)" />
      <path
         id="path145"
         d="m 82.6758,285.25 c 2.3398,0 4.6797,0 7.0195,0 0.4688,0 0.7813,0.258 0.8633,0.711 0.0781,0.437 -0.2734,0.891 -0.7227,0.926 -0.0468,0.004 -0.0937,0.004 -0.1406,0.004 -4.6875,0 -9.3711,-0.004 -14.0586,0.007 -0.5508,0 -1.0156,-0.496 -0.8242,-1.093 0.1094,-0.34 0.4102,-0.551 0.7852,-0.555 0.8789,0 1.7617,0 2.6445,0 1.4766,0 2.957,0 4.4336,0"
         style="fill:#ffffff;fill-opacity:1;fill-rule:nonzero;stroke:none"
         transform="matrix(0.66666667,0,0,-0.66666667,0,1122.5197)" />
    </g>
  </g>
</svg>
